<?xml version="1.0" encoding="utf-8"?>
<!-- Generator: Adobe Illustrator 27.3.1, SVG Export Plug-In . SVG Version: 6.00 Build 0)  -->
<svg version="1.1" id="_レイヤー_2" xmlns="http://www.w3.org/2000/svg" xmlns:xlink="http://www.w3.org/1999/xlink" x="0px"
	 y="0px" viewBox="0 0 38.8 40.1" style="enable-background:new 0 0 38.8 40.1;" xml:space="preserve">
<style type="text/css">
	.st0{fill:none;stroke:#FFFFFF;stroke-linecap:round;stroke-linejoin:round;}
</style>
<g id="_レイヤー_1-2">
	<path class="st0" d="M19.5,19.3c-2.4,0-4.4-2.3-4.6-5.9"/>
	<path class="st0" d="M14.9,13.4c-0.7-0.1-1.4-0.6-1.8-1.6"/>
	<path class="st0" d="M13.7,9.6c0.4-0.2,1.1,0.1,1.5,0.5"/>
	<path class="st0" d="M13.1,11.9c-0.4-1.1-0.1-2.1,0.5-2.3"/>
	<path class="st0" d="M19.5,19.3c1.8,0,3.2-1.4,3.9-3c0.2-0.6,0.4-1.2,0.5-1.8"/>
	<path class="st0" d="M24.6,13.3c0.6-0.3,1-0.8,1.2-1.4"/>
	<path class="st0" d="M25.3,9.5c-0.4-0.2-1.1,0.1-1.5,0.5"/>
	<path class="st0" d="M25.8,11.9c0.4-1.1,0.1-2.1-0.5-2.3"/>
	<path class="st0" d="M22,1.3c2.4-0.1,3.9,2.1,4.1,4.4c0.1,0.7,0,1.5-0.2,2.2"/>
	<path class="st0" d="M13.4,8C13,5,14.8,2,17.4,0.8c1.1-0.5,2.4-0.2,3.3,0.2"/>
	<path class="st0" d="M14.1,9.5c-0.1-0.1-0.1-0.2-0.2-0.3"/>
	<path class="st0" d="M16.1,17.3c0,1.8-1.4,2.5-2.8,3.2c-1.6,0.8-3.3,1.6-4.9,2.3c0,0-0.1,0-0.1,0c-0.8,0.3-1.3,1-1.5,1.8l-1.1,5.8"
		/>
	<path class="st0" d="M33.2,29.6l-0.6-4.7c-0.1-0.9-0.7-1.6-1.5-1.9c-2.4-1-4.3-1.9-6.8-3.3c-0.8-0.5-1.5-1.4-1.4-2.5"/>
	<path class="st0" d="M14.6,19.8c0.4,3.3,1.4,6.6,2.9,9.6"/>
	<path class="st0" d="M24.4,19.8c-0.4,3.4-1.4,6.7-3,9.8"/>
	<path class="st0" d="M15.1,10.1c0.1-0.6,0.2-1.1,0.4-1.7c0-0.1,0-0.2,0.1-0.2C15.7,8,15.9,8,16,8c0.8-0.1,1.7-0.3,2.3-0.9
		c0.5-0.4,0.7-1.1,1-1.6s0.7-1.1,1.3-1.4c0.7-0.3,1.7,0,2,0.7c1.1,1.4,1.5,3.4,1.2,5.2"/>
	<path class="st0" d="M19.5,25.7c-1.9,0-1.7-1.1-1.7-2.4"/>
	<path class="st0" d="M21.2,23.3c0,1.4,0.1,2.4-1.7,2.4"/>
	<path class="st0" d="M18.5,25.5c-0.5,1.2-0.8,2.6-0.8,3.9"/>
	<path class="st0" d="M20.6,25.5c0.4,1.2,0.7,2.6,0.7,3.9"/>
	<line class="st0" x1="15.2" y1="19.8" x2="18.7" y2="21.5"/>
	<line class="st0" x1="17.1" y1="24.7" x2="18.7" y2="21.5"/>
	<line class="st0" x1="17.1" y1="24.7" x2="15.4" y2="23.8"/>
	<line class="st0" x1="23.8" y1="19.8" x2="20.3" y2="21.5"/>
	<line class="st0" x1="21.9" y1="24.7" x2="20.3" y2="21.5"/>
	<line class="st0" x1="21.9" y1="24.7" x2="23.6" y2="23.8"/>
	<path class="st0" d="M18.6,21.7c0.2-0.2,0.5-0.3,0.9-0.3s0.6,0.1,0.9,0.3"/>
	<line class="st0" x1="12.4" y1="20.9" x2="11.4" y2="24"/>
	<line class="st0" x1="14" y1="24.7" x2="11.4" y2="24"/>
	<line class="st0" x1="14" y1="24.7" x2="10.9" y2="26.9"/>
	<line class="st0" x1="26.6" y1="20.9" x2="27.7" y2="24"/>
	<line class="st0" x1="25" y1="24.7" x2="27.7" y2="24"/>
	<line class="st0" x1="25" y1="24.7" x2="28.2" y2="26.9"/>
	<polyline class="st0" points="38.3,39.6 38.3,32.6 0.5,32.6 0.5,39.6 	"/>
</g>
</svg>
