<?xml version="1.0" encoding="UTF-8"?><svg id="_レイヤー_2" xmlns="http://www.w3.org/2000/svg" viewBox="0 0 38.84 40.13"><defs><style>.cls-1{fill:none;stroke:#666;stroke-linecap:round;stroke-linejoin:round;}</style></defs><g id="_レイヤー_1-2"><path class="cls-1" d="m19.49,19.31c-2.39,0-4.35-2.29-4.59-5.86"/><path class="cls-1" d="m14.9,13.45c-.74-.15-1.41-.65-1.76-1.59"/><path class="cls-1" d="m13.67,9.55c.41-.16,1.09.09,1.49.53"/><path class="cls-1" d="m13.14,11.87c-.39-1.08-.13-2.07.53-2.32"/><path class="cls-1" d="m19.49,19.31c1.82,0,3.23-1.37,3.93-3,.25-.57.42-1.18.53-1.79"/><path class="cls-1" d="m24.61,13.26c.59-.28,1-.8,1.23-1.42"/><path class="cls-1" d="m25.31,9.53c-.41-.16-1.09.09-1.49.53"/><path class="cls-1" d="m25.84,11.85c.39-1.08.13-2.07-.53-2.32"/><path class="cls-1" d="m22.04,1.32c2.42-.13,3.91,2.14,4.09,4.4.06.74-.02,1.47-.21,2.18"/><path class="cls-1" d="m13.43,7.97c-.39-2.94,1.41-5.94,4-7.22,1.13-.46,2.36-.23,3.32.24"/><path class="cls-1" d="m14.14,9.51c-.08-.1-.15-.21-.22-.32"/><path class="cls-1" d="m16.06,17.26c0,1.8-1.4,2.52-2.8,3.25-1.61.84-3.27,1.58-4.94,2.29-.04.02-.08.03-.12.05-.76.31-1.32,1-1.47,1.83l-1.06,5.78"/><path class="cls-1" d="m33.17,29.6l-.62-4.67c-.12-.87-.68-1.61-1.47-1.94-2.36-.98-4.28-1.89-6.78-3.27-.79-.46-1.46-1.39-1.36-2.46"/><path class="cls-1" d="m14.56,19.8c.41,3.33,1.38,6.59,2.86,9.61"/><path class="cls-1" d="m24.42,19.78c-.42,3.39-1.42,6.7-2.95,9.75"/><path class="cls-1" d="m15.14,10.08c.13-.56.25-1.12.38-1.68.02-.09.04-.18.1-.25.09-.1.24-.12.37-.14.82-.1,1.66-.33,2.25-.91.46-.45.72-1.06,1.03-1.62s.7-1.13,1.29-1.37c.73-.3,1.67.04,2.03.74,1.07,1.44,1.51,3.41,1.22,5.19"/><path class="cls-1" d="m19.49,25.73c-1.87-.01-1.69-1.09-1.69-2.44"/><path class="cls-1" d="m21.2,23.29c0,1.35.14,2.44-1.71,2.44"/><path class="cls-1" d="m18.46,25.54c-.48,1.25-.76,2.59-.82,3.93"/><path class="cls-1" d="m20.62,25.54c.42,1.25.67,2.58.73,3.93"/><line class="cls-1" x1="15.16" y1="19.78" x2="18.73" y2="21.51"/><line class="cls-1" x1="17.07" y1="24.69" x2="18.73" y2="21.51"/><line class="cls-1" x1="17.07" y1="24.69" x2="15.35" y2="23.81"/><line class="cls-1" x1="23.84" y1="19.78" x2="20.27" y2="21.51"/><line class="cls-1" x1="21.94" y1="24.69" x2="20.27" y2="21.51"/><line class="cls-1" x1="21.94" y1="24.69" x2="23.65" y2="23.81"/><path class="cls-1" d="m18.65,21.72c.22-.2.53-.32.85-.32s.63.11.86.3"/><line class="cls-1" x1="12.45" y1="20.94" x2="11.4" y2="23.98"/><line class="cls-1" x1="14.02" y1="24.69" x2="11.4" y2="23.98"/><line class="cls-1" x1="14.02" y1="24.69" x2="10.88" y2="26.94"/><line class="cls-1" x1="26.61" y1="20.94" x2="27.66" y2="23.98"/><line class="cls-1" x1="25.04" y1="24.69" x2="27.66" y2="23.98"/><line class="cls-1" x1="25.04" y1="24.69" x2="28.19" y2="26.94"/><polyline class="cls-1" points="38.34 39.63 38.34 32.59 .5 32.59 .5 39.63"/></g></svg>