<?xml version="1.0" encoding="UTF-8"?><svg id="_レイヤー_2" xmlns="http://www.w3.org/2000/svg" viewBox="0 0 41.57 40.81"><defs><style>.cls-1{fill:none;stroke:#666;stroke-linecap:round;stroke-linejoin:round;}</style></defs><g id="_レイヤー_1-2"><path class="cls-1" d="m20.81,19.36c-2.56,0-4.66-2.39-4.92-6.11"/><path class="cls-1" d="m20.81,19.36c2.56,0,4.66-2.4,4.92-6.13"/><path class="cls-1" d="m25.73,13.23c.8-.15,1.51-.68,1.88-1.66"/><path class="cls-1" d="m27.05,9.15c-.44-.16-1.16.09-1.6.55"/><path class="cls-1" d="m27.62,11.57c.42-1.12.13-2.16-.57-2.42"/><path class="cls-1" d="m17.07,19.63c-.15.17-.32.32-.51.46"/><path class="cls-1" d="m17.64,17.88c.12.65-.14,1.28-.57,1.76"/><path class="cls-1" d="m24.55,19.63c.15.17.33.32.51.46"/><path class="cls-1" d="m23.98,17.88c-.12.65.15,1.28.57,1.76"/><path class="cls-1" d="m14.72,27.72c.15.56.32,1.13.51,1.69"/><path class="cls-1" d="m11.81,26.3c.68.89,1.82,1.42,2.9,1.42"/><path class="cls-1" d="m11.24,23.11c-.33,1.07-.11,2.3.57,3.19"/><path class="cls-1" d="m13.45,10.36s-.5,7.84-2.21,12.75"/><path class="cls-1" d="m25.03,20.07c2.36,1.51,3.81,1.65,6.24,3.04,1.54.88,3.62,6.82,3.62,6.82"/><path class="cls-1" d="m9.94,22.53c-1.08.51-1.49.77-2.39,1.8-1.06,1-1.8,5.9-1.8,5.9"/><line class="cls-1" x1="13.45" y1="10.36" x2="13.45" y2="10.36"/><path class="cls-1" d="m13.45,10.3s0,.04,0,.06"/><path class="cls-1" d="m20.75.5c-4.03,0-7.3,4.39-7.3,9.8"/><path class="cls-1" d="m20.81.5s-.04,0-.06,0"/><path class="cls-1" d="m20.87.5s-.04,0-.06,0"/><path class="cls-1" d="m23.7,1.2c-.88-.43-1.85-.7-2.83-.7"/><path class="cls-1" d="m28.47,8.55c-.18-2.62-1.49-5.11-3.63-6.66"/><path class="cls-1" d="m31.07,22.27c-1.15-.7-2.1-1.67-2.63-2.92s-.62-2.6-.59-3.92c.03-.89.12-1.78.22-2.66"/><path class="cls-1" d="m27.22,21.07c.09,2.83-.31,5.68-1.18,8.42"/><path class="cls-1" d="m22.23,4.36c-.34-.02-.64.27-.77.58s-.13.67-.14,1.02c-.05.94-.27,1.91-.83,2.67s-1.5,1.29-2.44,1.16"/><path class="cls-1" d="m18.82,6.61c-.14,1.79-1.46,3.44-3.18,3.96"/><path class="cls-1" d="m23.06,5.18c.36.36.53.86.64,1.35s.18,1,.39,1.46.6.88,1.09.96"/><path class="cls-1" d="m14.7,15.24c.69,2.05.04,4.27-.51,6.36-.21.78-.4,1.59-.25,2.39s.71,1.57,1.51,1.69"/><path class="cls-1" d="m16.13,21.06c-.11.55.1,1.11.38,1.59s.63.93.84,1.45c.49,1.18.14,2.66-.82,3.49"/><path class="cls-1" d="m25.81,21.14c-1.05,2.02-2.71,3.72-4.75,4.98-1-.52-1.97-1.08-2.9-1.71"/><polyline class="cls-1" points="41.07 40.31 41.07 32.96 .5 32.96 .5 40.31"/></g></svg>