<?xml version="1.0" encoding="utf-8"?>
<!-- Generator: Adobe Illustrator 27.3.1, SVG Export Plug-In . SVG Version: 6.00 Build 0)  -->
<svg version="1.1" id="_レイヤー_2" xmlns="http://www.w3.org/2000/svg" xmlns:xlink="http://www.w3.org/1999/xlink" x="0px"
	 y="0px" viewBox="0 0 41.6 40.8" style="enable-background:new 0 0 41.6 40.8;" xml:space="preserve">
<style type="text/css">
	.st0{fill:none;stroke:#FFFFFF;stroke-linecap:round;stroke-linejoin:round;}
</style>
<g id="_レイヤー_1-2">
	<path class="st0" d="M20.8,19.4c-2.6,0-4.7-2.4-4.9-6.1"/>
	<path class="st0" d="M20.8,19.4c2.6,0,4.7-2.4,4.9-6.1"/>
	<path class="st0" d="M25.7,13.2c0.8-0.1,1.5-0.7,1.9-1.7"/>
	<path class="st0" d="M27,9.1c-0.4-0.2-1.2,0.1-1.6,0.6"/>
	<path class="st0" d="M27.6,11.6c0.4-1.1,0.1-2.2-0.6-2.4"/>
	<path class="st0" d="M17.1,19.6c-0.1,0.2-0.3,0.3-0.5,0.5"/>
	<path class="st0" d="M17.6,17.9c0.1,0.6-0.1,1.3-0.6,1.8"/>
	<path class="st0" d="M24.5,19.6c0.1,0.2,0.3,0.3,0.5,0.5"/>
	<path class="st0" d="M24,17.9c-0.1,0.6,0.1,1.3,0.6,1.8"/>
	<path class="st0" d="M14.7,27.7c0.1,0.6,0.3,1.1,0.5,1.7"/>
	<path class="st0" d="M11.8,26.3c0.7,0.9,1.8,1.4,2.9,1.4"/>
	<path class="st0" d="M11.2,23.1c-0.3,1.1-0.1,2.3,0.6,3.2"/>
	<path class="st0" d="M13.4,10.4c0,0-0.5,7.8-2.2,12.8"/>
	<path class="st0" d="M25,20.1c2.4,1.5,3.8,1.6,6.2,3c1.5,0.9,3.6,6.8,3.6,6.8"/>
	<path class="st0" d="M9.9,22.5c-1.1,0.5-1.5,0.8-2.4,1.8c-1.1,1-1.8,5.9-1.8,5.9"/>
	<line class="st0" x1="13.4" y1="10.4" x2="13.4" y2="10.4"/>
	<path class="st0" d="M13.4,10.3C13.4,10.3,13.4,10.3,13.4,10.3"/>
	<path class="st0" d="M20.8,0.5c-4,0-7.3,4.4-7.3,9.8"/>
	<path class="st0" d="M20.8,0.5C20.8,0.5,20.8,0.5,20.8,0.5"/>
	<path class="st0" d="M20.9,0.5C20.9,0.5,20.8,0.5,20.9,0.5"/>
	<path class="st0" d="M23.7,1.2c-0.9-0.4-1.9-0.7-2.8-0.7"/>
	<path class="st0" d="M28.5,8.6c-0.2-2.6-1.5-5.1-3.6-6.7"/>
	<path class="st0" d="M31.1,22.3c-1.1-0.7-2.1-1.7-2.6-2.9s-0.6-2.6-0.6-3.9c0-0.9,0.1-1.8,0.2-2.7"/>
	<path class="st0" d="M27.2,21.1c0.1,2.8-0.3,5.7-1.2,8.4"/>
	<path class="st0" d="M22.2,4.4c-0.3,0-0.6,0.3-0.8,0.6s-0.1,0.7-0.1,1c0,0.9-0.3,1.9-0.8,2.7S19,9.9,18,9.8"/>
	<path class="st0" d="M18.8,6.6c-0.1,1.8-1.5,3.4-3.2,4"/>
	<path class="st0" d="M23.1,5.2c0.4,0.4,0.5,0.9,0.6,1.3s0.2,1,0.4,1.5s0.6,0.9,1.1,1"/>
	<path class="st0" d="M14.7,15.2c0.7,2,0,4.3-0.5,6.4c-0.2,0.8-0.4,1.6-0.2,2.4s0.7,1.6,1.5,1.7"/>
	<path class="st0" d="M16.1,21.1c-0.1,0.5,0.1,1.1,0.4,1.6s0.6,0.9,0.8,1.5c0.5,1.2,0.1,2.7-0.8,3.5"/>
	<path class="st0" d="M25.8,21.1c-1,2-2.7,3.7-4.8,5c-1-0.5-2-1.1-2.9-1.7"/>
	<polyline class="st0" points="41.1,40.3 41.1,33 0.5,33 0.5,40.3 	"/>
</g>
</svg>
