<?xml version="1.0" encoding="UTF-8"?><svg id="_レイヤー_2" xmlns="http://www.w3.org/2000/svg" viewBox="0 0 38.4 41.6"><defs><style>.cls-1{fill:none;stroke:#666;stroke-linecap:round;stroke-linejoin:round;}</style></defs><g id="_レイヤー_1-2"><path class="cls-1" d="m19.55,28.18c-2.39,0-4.35-2.23-4.59-5.7"/><path class="cls-1" d="m14.96,22.48c-.74-.14-1.41-.63-1.76-1.55"/><path class="cls-1" d="m13.73,18.68c.41-.15,1.09.09,1.49.51"/><path class="cls-1" d="m13.2,20.93c-.39-1.05-.13-2.01.53-2.26"/><path class="cls-1" d="m19.55,28.18c2.39,0,4.35-2.24,4.59-5.72"/><path class="cls-1" d="m24.14,22.46c.74-.14,1.41-.63,1.76-1.55"/><path class="cls-1" d="m25.36,18.66c-.41-.15-1.09.09-1.49.51"/><path class="cls-1" d="m25.89,20.92c.39-1.05.13-2.01-.53-2.26"/><path class="cls-1" d="m22.09,10.71c2.47-.03,4.09,2.08,4.13,4.41.01.72-.1,1.43-.3,2.12"/><path class="cls-1" d="m13.46,17.04c-.28-2.87,1.41-5.68,3.88-6.92,1.13-.45,2.36-.34,3.44.21"/><path class="cls-1" d="m15.07,29.2c-2.1,1.27-4.42,2.17-6.69,3.08,0,0-.01,0-.02,0-.74.3-1.31.91-1.54,1.67l-2.22,7.15"/><path class="cls-1" d="m16.59,26.8c.12.63-.13,1.21-.56,1.66"/><path class="cls-1" d="m22.8,28.13c1.93,1.8,4.48,2.65,6.87,3.64.3.12.6.25.89.38.72.32,1.26.95,1.47,1.71l2.01,7.24"/><path class="cls-1" d="m19.79,32.05c-1.91,0-3.79-1.02-4.68-2.75"/><path class="cls-1" d="m24.41,29.42c-.86,1.56-2.6,2.63-4.62,2.63"/><path class="cls-1" d="m13.42,30.07c.44,2.81,1.28,5.56,2.5,8.13"/><path class="cls-1" d="m25.68,30.07c-.44,2.81-1.28,5.55-2.49,8.12"/><path class="cls-1" d="m22.26,14.75c-.19.8-.11,1.69.35,2.37.23.34.54.62.8.93s.48.7.47,1.11"/><path class="cls-1" d="m21.53,14.51c-.51.17-.85.67-1.04,1.18s-.28,1.05-.5,1.54c-.5,1.12-1.71,1.89-2.94,1.85"/><path class="cls-1" d="m18.77,15.25c-.53.04-.97.42-1.3.84s-.6.89-1,1.24-.98.57-1.46.35"/><polyline class="cls-1" points="35.26 32.37 37.9 32.37 37.9 .5 .5 .5 .5 32.37 3.13 32.37"/></g></svg>