<?xml version="1.0" encoding="UTF-8"?><svg id="_レイヤー_2" xmlns="http://www.w3.org/2000/svg" viewBox="0 0 41.79 41.01"><defs><style>.cls-1{fill:none;stroke:#666;stroke-linecap:round;stroke-linejoin:round;}</style></defs><g id="_レイヤー_1-2"><path class="cls-1" d="m30.21,20.12c-1.89,0-3.45-1.77-3.64-4.52"/><path class="cls-1" d="m30.21,20.12c1.89,0,3.45-1.78,3.64-4.54"/><path class="cls-1" d="m33.85,15.58c.59-.11,1.12-.5,1.39-1.23"/><path class="cls-1" d="m35.24,14.36c.31-.83.1-1.6-.42-1.79"/><path class="cls-1" d="m27.86,19.03c.15.55-.24,1.22-.72,1.61-1.88,1.18-3.16,1.9-5.07,2.72-.79.34-1.37,1.04-1.56,1.88l-1.06,5.27"/><path class="cls-1" d="m32.93,20.28c.32.37.75.64,1.19.87,1.25.66,2.75,1.6,4.06,2.12,0,0,.02,0,.03.01.83.33,1.44,1.05,1.62,1.92l1.26,5.29"/><path class="cls-1" d="m34.83,12.57c-.16-.04-.33-.02-.59.1.03-1.68-.69-3.35-1.93-4.48-.14.86-.65,1.65-1.34,2.19s-1.56.83-2.43.87c-.53.03-1.13,0-1.51.36-.24.24-.35.58-.4.92-.14.99-.15,1.86-.06,3.07"/><path class="cls-1" d="m32.78,5.81c.59.18.97.46,1.35.94,1.82,2.49,2.58,5.45,2.39,8.42-.1,1.34-.86,2.58-2.15,3.14"/><path class="cls-1" d="m34.43,21.29c-1.77.51-3.39,1.5-4.62,2.83"/><path class="cls-1" d="m25.99,21.29c1.69.43,3.08,1.26,4.25,2.39"/><path class="cls-1" d="m29.8,24.12v4l.02,2.56"/><path class="cls-1" d="m24.25,18.03c.54-.07.91-.61.99-1.15s-.07-1.08-.18-1.61c-.32-1.5-.39-3.08-.02-4.57.37-1.49,1.19-2.9,2.42-3.81s2.89-1.3,4.18-.84c-.57.19-1.07.61-1.36,1.14-.27.5-.35,1.08-.59,1.59-.48,1.01-1.63,1.65-2.74,1.53"/><polyline class="cls-1" points="41.29 40.51 41.29 33.16 .72 33.16 .72 40.51"/><polyline class="cls-1" points="10.41 30.94 10.41 20.93 13.27 18.68"/><polyline class="cls-1" points="7.45 19.91 .5 19.91 .5 .5 29.15 .5 29.15 2.95"/><line class="cls-1" x1="20.72" y1="19.91" x2="15.77" y2="19.91"/></g></svg>