<?xml version="1.0" encoding="utf-8"?>
<!-- Generator: Adobe Illustrator 27.3.1, SVG Export Plug-In . SVG Version: 6.00 Build 0)  -->
<svg version="1.1" id="_レイヤー_2" xmlns="http://www.w3.org/2000/svg" xmlns:xlink="http://www.w3.org/1999/xlink" x="0px"
	 y="0px" viewBox="0 0 38.4 41.3" style="enable-background:new 0 0 38.4 41.3;" xml:space="preserve">
<style type="text/css">
	.st0{fill:none;stroke:#FFFFFF;stroke-linecap:round;stroke-linejoin:round;}
</style>
<g id="_レイヤー_1-2">
	<polyline class="st0" points="14.7,8.1 25.4,8.1 25.4,9.9 	"/>
	<polyline class="st0" points="25.4,23.2 25.4,40.8 0.5,40.8 0.5,8.1 11.1,8.1 	"/>
	<path class="st0" d="M14.7,8.1V7.7c0-1-0.8-1.9-1.9-1.9S11,6.6,11,7.7v0.4H6.7v4.6h12.4V8.1C19.2,8.1,14.7,8.1,14.7,8.1z"/>
	<line class="st0" x1="4.6" y1="17.1" x2="6" y2="17.1"/>
	<line class="st0" x1="9.3" y1="17.1" x2="21.3" y2="17.1"/>
	<line class="st0" x1="4.6" y1="24.5" x2="6" y2="24.5"/>
	<line class="st0" x1="9.3" y1="24.5" x2="21.3" y2="24.5"/>
	<line class="st0" x1="4.6" y1="31.9" x2="6" y2="31.9"/>
	<line class="st0" x1="9.3" y1="31.9" x2="21.3" y2="31.9"/>
	<polygon class="st0" points="37.5,4.1 27.2,18.8 22.8,16.3 33.1,1.6 	"/>
	<polygon class="st0" points="37,3.8 37.9,2.5 34.5,0.5 33.5,1.8 	"/>
	<polygon class="st0" points="26.9,18.7 23,16.5 22.3,21.3 	"/>
	<line class="st0" x1="21.5" y1="22.4" x2="22.5" y2="21"/>
</g>
</svg>
