<?xml version="1.0" encoding="UTF-8"?><svg id="_レイヤー_2" xmlns="http://www.w3.org/2000/svg" viewBox="0 0 22.28 22.28"><defs><style>.cls-1{fill:#f0eee4;}</style></defs><g id="_レイヤー_1-2"><path class="cls-1" d="m21.41,6.8c-.56-1.33-1.36-2.52-2.39-3.54-1.02-1.02-2.21-1.83-3.54-2.39-1.37-.58-2.83-.88-4.34-.88s-2.96.29-4.34.88c-1.33.56-2.52,1.36-3.54,2.39-.99.99-1.78,2.14-2.33,3.42h0v.02s-.03.07-.04.1c-.58,1.37-.88,2.83-.88,4.34s.29,2.96.88,4.34c.01.03.03.07.04.1v.02h0c.56,1.28,1.34,2.43,2.33,3.42,1.02,1.02,2.21,1.83,3.54,2.39,1.37.58,2.83.88,4.34.88s2.96-.29,4.34-.88c1.33-.56,2.52-1.36,3.54-2.39,1.02-1.02,1.83-2.21,2.39-3.54.58-1.37.88-2.83.88-4.34s-.29-2.96-.88-4.34Zm-1.5-.12h-2.43c-.32-1.21-.78-2.32-1.36-3.29-.25-.42-.52-.8-.8-1.15,1.98.93,3.59,2.5,4.59,4.44Zm1.07,4.46c0,1.1-.18,2.16-.52,3.15h-2.69c.18-1.01.28-2.07.28-3.15s-.09-2.14-.28-3.15h2.69c.34.99.52,2.05.52,3.15Zm-19.67,0c0-1.1.18-2.16.52-3.15h2.69c-.18,1.01-.28,2.07-.28,3.15s.09,2.14.28,3.15H1.83c-.34-.99-.52-2.05-.52-3.15Zm4.24,0c0-1.09.1-2.15.3-3.15h4.64v6.3h-4.64c-.2-1-.3-2.06-.3-3.15ZM11.8,1.38c1.19.25,2.31,1.18,3.2,2.68.46.78.84,1.66,1.12,2.62h-4.32V1.38Zm-1.31,0v5.31h-4.32c.28-.96.66-1.85,1.12-2.62.89-1.5,2.01-2.43,3.2-2.68Zm0,14.22v5.31c-1.19-.25-2.31-1.18-3.2-2.68-.46-.78-.84-1.66-1.12-2.62h4.32Zm1.31,5.31v-5.31h4.32c-.28.96-.66,1.85-1.12,2.62-.89,1.5-2.01,2.43-3.2,2.68Zm0-6.61v-6.3h4.64c.2,1,.3,2.06.3,3.15s-.1,2.15-.3,3.15h-4.64ZM6.96,2.24c-.28.35-.55.73-.8,1.15-.58.97-1.03,2.08-1.36,3.29h-2.43c.99-1.94,2.61-3.51,4.59-4.44ZM2.38,15.6h2.43c.32,1.21.78,2.32,1.36,3.29.25.42.52.8.8,1.15-1.98-.93-3.59-2.5-4.59-4.44Zm12.94,4.44c.28-.35.55-.73.8-1.15.58-.97,1.03-2.08,1.36-3.29h2.43c-.99,1.94-2.61,3.51-4.59,4.44Z"/></g></svg>