<?xml version="1.0" encoding="UTF-8"?><svg id="_レイヤー_2" xmlns="http://www.w3.org/2000/svg" viewBox="0 0 402.28 34.51"><defs><style>.cls-1{fill:#be4682;}.cls-2{fill:#444;}</style></defs><g id="_レイヤー_1-2"><path class="cls-1" d="m.1,2.67v-.99h10.58l.15,3.67h-1.47l-.44-2.56h-4.26c-.01.88-.02,1.76-.03,2.64,0,.88-.01,1.7-.01,2.47h2.71l.27-1.83h1.09v4.75h-1.09l-.25-1.81h-2.73c0,1.01,0,1.96.01,2.85,0,.89.02,1.77.03,2.64h4.68l.44-2.56h1.47l-.15,3.67H.1v-.99l1.76-.19c.03-.87.04-1.75.04-2.65v-6.25c0-.89-.01-1.78-.04-2.68l-1.76-.19Z"/><path class="cls-1" d="m20.61,15.85c-.56,0-1.02-.14-1.36-.42-.35-.28-.59-.67-.71-1.16-.52.53-.99.93-1.41,1.21-.42.27-.97.41-1.64.41-.78,0-1.45-.23-1.98-.68-.54-.45-.81-1.11-.81-1.96,0-.45.1-.86.31-1.25.21-.38.58-.75,1.12-1.08s1.31-.66,2.32-.99c.28-.1.59-.2.94-.29.35-.1.71-.2,1.07-.29v-.59c0-.98-.14-1.64-.41-1.98-.27-.34-.75-.51-1.44-.51-.13,0-.26,0-.41.02-.15.01-.3.04-.45.06l-.25,1.16c-.06.5-.2.88-.44,1.11s-.53.36-.88.36c-.67,0-1.06-.31-1.18-.94.13-.84.58-1.51,1.35-2.02.78-.5,1.8-.76,3.08-.76s2.11.29,2.67.87.84,1.56.84,2.93v4.58c0,.63.2.95.61.95.27,0,.51-.15.73-.46l.48.42c-.25.48-.55.82-.89,1.02-.34.2-.77.3-1.27.3Zm-5.46-3.04c0,.55.14.94.43,1.19.29.25.64.37,1.06.37.24,0,.48-.06.71-.17.24-.11.61-.34,1.11-.69v-3.32c-.29.1-.57.19-.83.27-.26.08-.48.16-.66.23-.7.28-1.18.6-1.44.97-.26.36-.39.75-.39,1.16Z"/><path class="cls-1" d="m27.33,15.9c-.64,0-1.24-.07-1.77-.22-.54-.15-1.07-.37-1.61-.66l-.02-2.44h1.41l.38,1.95c.5.21,1.05.31,1.64.31.71,0,1.25-.13,1.6-.38.35-.25.52-.6.52-1.05,0-.39-.14-.71-.42-.96-.28-.24-.76-.48-1.43-.7l-1.05-.36c-.78-.25-1.4-.62-1.86-1.11-.46-.49-.68-1.11-.68-1.85,0-.59.15-1.12.46-1.61.31-.48.76-.87,1.35-1.15.59-.29,1.32-.43,2.17-.43.6,0,1.15.07,1.65.22.5.15.99.36,1.48.64l-.1,2.21h-1.39l-.38-1.76c-.39-.17-.83-.25-1.3-.25-.56,0-.99.12-1.3.36-.31.24-.46.56-.46.97,0,.38.13.68.39.91.26.23.75.47,1.46.7l.84.25c1.02.35,1.75.78,2.18,1.3.43.52.65,1.14.65,1.87,0,.94-.38,1.71-1.14,2.32s-1.85.91-3.27.91Z"/><path class="cls-1" d="m36.82,15.9c-.84,0-1.5-.21-1.97-.63-.48-.42-.71-1.09-.71-2.02,0-.32,0-.63.01-.91,0-.29.01-.63.01-1.04v-4.47h-1.55v-1.09l1.7-.21.8-2.88h1.7l-.08,2.9h2.52v1.28h-2.54v6.19c0,.52.1.9.3,1.13.2.24.47.36.81.36.38,0,.8-.18,1.28-.53l.5.53c-.27.43-.63.77-1.09,1.02-.46.25-1.02.37-1.68.37Z"/><path class="cls-1" d="m44.4,15.6v-.99l1.72-.25,4.39-12.77h1.72l4.39,12.87,1.43.17v.97h-6.07v-.97l1.85-.23-1.01-3.11h-4.58l-1.01,3.05,1.83.27v.99h-4.66Zm6.15-11.21l-1.93,5.82h3.84l-1.91-5.82Z"/><path class="cls-1" d="m62.75,15.9c-.64,0-1.24-.07-1.77-.22-.54-.15-1.07-.37-1.61-.66l-.02-2.44h1.41l.38,1.95c.5.21,1.05.31,1.64.31.71,0,1.25-.13,1.6-.38.35-.25.52-.6.52-1.05,0-.39-.14-.71-.42-.96-.28-.24-.76-.48-1.43-.7l-1.05-.36c-.78-.25-1.4-.62-1.86-1.11-.46-.49-.68-1.11-.68-1.85,0-.59.15-1.12.46-1.61.31-.48.76-.87,1.35-1.15.59-.29,1.32-.43,2.17-.43.6,0,1.15.07,1.65.22.5.15.99.36,1.48.64l-.1,2.21h-1.39l-.38-1.76c-.39-.17-.83-.25-1.3-.25-.56,0-.99.12-1.3.36-.31.24-.46.56-.46.97,0,.38.13.68.39.91.26.23.75.47,1.46.7l.84.25c1.02.35,1.75.78,2.18,1.3.43.52.65,1.14.65,1.87,0,.94-.38,1.71-1.14,2.32s-1.85.91-3.27.91Z"/><path class="cls-1" d="m68.32,15.6v-.86l1.39-.27c.01-.52.02-1.08.02-1.69v-2.57c0-.57,0-1.05-.01-1.44,0-.38-.02-.79-.05-1.21l-1.49-.19v-.8l3.78-1.32.34.21-.06,2.96v4.36c0,.61,0,1.18.02,1.71l1.28.25v.86h-5.21Zm2.65-12.31c-.45,0-.83-.14-1.13-.42-.31-.28-.46-.64-.46-1.07s.15-.81.46-1.09c.31-.28.69-.42,1.13-.42s.82.14,1.12.42c.3.28.45.64.45,1.09s-.15.79-.45,1.07c-.3.28-.68.42-1.12.42Z"/><path class="cls-1" d="m82.75,15.85c-.56,0-1.02-.14-1.36-.42-.35-.28-.59-.67-.71-1.16-.52.53-.99.93-1.41,1.21-.42.27-.97.41-1.64.41-.78,0-1.45-.23-1.98-.68-.54-.45-.81-1.11-.81-1.96,0-.45.1-.86.31-1.25.21-.38.58-.75,1.12-1.08s1.31-.66,2.32-.99c.28-.1.59-.2.94-.29.35-.1.71-.2,1.07-.29v-.59c0-.98-.14-1.64-.41-1.98-.27-.34-.75-.51-1.44-.51-.13,0-.26,0-.41.02-.15.01-.3.04-.45.06l-.25,1.16c-.06.5-.2.88-.44,1.11s-.53.36-.88.36c-.67,0-1.06-.31-1.18-.94.13-.84.58-1.51,1.35-2.02.78-.5,1.8-.76,3.08-.76s2.11.29,2.67.87.84,1.56.84,2.93v4.58c0,.63.2.95.61.95.27,0,.51-.15.73-.46l.48.42c-.25.48-.55.82-.89,1.02-.34.2-.77.3-1.27.3Zm-5.46-3.04c0,.55.14.94.43,1.19.29.25.64.37,1.06.37.24,0,.48-.06.71-.17.24-.11.61-.34,1.11-.69v-3.32c-.29.1-.57.19-.83.27-.26.08-.48.16-.66.23-.7.28-1.18.6-1.44.97-.26.36-.39.75-.39,1.16Z"/><path class="cls-1" d="m86.01,15.6v-.86l1.37-.27c.01-.52.02-1.08.02-1.69v-2.7c0-.57,0-1.03-.01-1.38,0-.34-.02-.72-.05-1.14l-1.47-.19v-.8l3.51-1.32.34.21.15,1.62c1.08-1.22,2.27-1.83,3.57-1.83.91,0,1.61.3,2.11.9.5.6.75,1.55.75,2.86v3.8c0,.6,0,1.16.02,1.68l1.28.25v.86h-5.19v-.86l1.34-.27c.01-.52.02-1.07.02-1.67v-3.6c0-.83-.11-1.4-.34-1.71-.22-.31-.6-.47-1.13-.47-.74,0-1.53.34-2.35,1.03v4.75c0,.6,0,1.17.02,1.7l1.24.25v.86h-5.19Z"/><path class="cls-1" d="m110.87,15.96c-1.37,0-2.6-.29-3.69-.87-1.08-.58-1.94-1.42-2.56-2.52-.62-1.1-.93-2.41-.93-3.94s.33-2.83.98-3.93c.65-1.09,1.53-1.93,2.62-2.51,1.1-.58,2.31-.87,3.64-.87.69,0,1.37.08,2.06.23.69.15,1.36.42,2.04.8l.08,3.15h-1.45l-.5-2.6c-.31-.17-.62-.29-.92-.36-.31-.07-.62-.1-.92-.1-.84,0-1.61.23-2.32.68-.71.46-1.27,1.14-1.7,2.06-.43.92-.64,2.08-.64,3.48s.2,2.54.6,3.45c.4.92.94,1.6,1.63,2.05.69.45,1.46.67,2.31.67.71,0,1.44-.16,2.16-.48l.5-2.56h1.43l-.08,3.13c-.6.34-1.27.6-2,.78-.73.18-1.51.27-2.33.27Z"/><path class="cls-1" d="m121.82,15.9c-.95,0-1.81-.21-2.57-.63-.76-.42-1.37-1.03-1.82-1.83-.45-.8-.67-1.75-.67-2.86s.23-2.08.7-2.88c.47-.8,1.09-1.41,1.86-1.83s1.6-.63,2.5-.63,1.73.21,2.5.63,1.39,1.03,1.87,1.82c.48.79.71,1.75.71,2.89s-.23,2.08-.68,2.87-1.06,1.4-1.83,1.82c-.76.42-1.62.63-2.57.63Zm0-1.03c.76,0,1.33-.35,1.73-1.05.4-.7.6-1.77.6-3.21,0-2.88-.78-4.33-2.33-4.33s-2.31,1.44-2.31,4.33c0,1.44.2,2.51.59,3.21.39.7.97,1.05,1.72,1.05Z"/><path class="cls-1" d="m128.06,15.6v-.86l1.37-.27c.01-.52.02-1.08.02-1.69v-2.7c0-.57,0-1.03-.01-1.38,0-.34-.02-.72-.05-1.14l-1.47-.19v-.8l3.51-1.32.34.21.15,1.62c1.08-1.22,2.27-1.83,3.57-1.83.91,0,1.61.3,2.11.9.5.6.75,1.55.75,2.86v3.8c0,.6,0,1.16.02,1.68l1.28.25v.86h-5.19v-.86l1.34-.27c.01-.52.02-1.07.02-1.67v-3.6c0-.83-.11-1.4-.34-1.71-.22-.31-.6-.47-1.13-.47-.74,0-1.53.34-2.35,1.03v4.75c0,.6,0,1.17.02,1.7l1.24.25v.86h-5.19Z"/><path class="cls-1" d="m144.45,15.9c-.64,0-1.24-.07-1.77-.22-.54-.15-1.07-.37-1.61-.66l-.02-2.44h1.41l.38,1.95c.5.21,1.05.31,1.64.31.71,0,1.25-.13,1.6-.38.35-.25.52-.6.52-1.05,0-.39-.14-.71-.42-.96-.28-.24-.76-.48-1.43-.7l-1.05-.36c-.78-.25-1.4-.62-1.86-1.11-.46-.49-.68-1.11-.68-1.85,0-.59.15-1.12.46-1.61.31-.48.76-.87,1.35-1.15.59-.29,1.32-.43,2.17-.43.6,0,1.15.07,1.65.22.5.15.99.36,1.48.64l-.1,2.21h-1.39l-.38-1.76c-.39-.17-.83-.25-1.3-.25-.56,0-.99.12-1.3.36-.31.24-.46.56-.46.97,0,.38.13.68.39.91.26.23.75.47,1.46.7l.84.25c1.02.35,1.75.78,2.18,1.3.43.52.65,1.14.65,1.87,0,.94-.38,1.71-1.14,2.32s-1.85.91-3.27.91Z"/><path class="cls-1" d="m155.3,15.9c-.95,0-1.81-.21-2.57-.63-.76-.42-1.37-1.03-1.82-1.83-.45-.8-.67-1.75-.67-2.86s.23-2.08.7-2.88c.47-.8,1.09-1.41,1.86-1.83s1.6-.63,2.5-.63,1.73.21,2.5.63,1.39,1.03,1.87,1.82c.48.79.71,1.75.71,2.89s-.23,2.08-.68,2.87-1.06,1.4-1.83,1.82c-.76.42-1.62.63-2.57.63Zm0-1.03c.76,0,1.33-.35,1.73-1.05.4-.7.6-1.77.6-3.21,0-2.88-.78-4.33-2.33-4.33s-2.31,1.44-2.31,4.33c0,1.44.2,2.51.59,3.21.39.7.97,1.05,1.72,1.05Z"/><path class="cls-1" d="m161.56,15.6v-.86l1.34-.25c.01-.53.02-1.1.02-1.71v-2.7c0-.57,0-1.03-.01-1.38,0-.34-.02-.72-.05-1.14l-1.47-.19v-.8l3.51-1.32.34.21.21,2.48c.32-.87.76-1.53,1.3-2s1.09-.69,1.64-.69c.38,0,.72.1,1.04.29.31.2.52.48.62.84-.01.52-.14.92-.38,1.21-.24.29-.57.43-.99.43-.5,0-.98-.25-1.43-.76l-.19-.21c-.74.62-1.27,1.48-1.6,2.6v3.08c0,.6,0,1.15.02,1.67l1.72.34v.86h-5.65Z"/><path class="cls-1" d="m175.14,15.9c-.84,0-1.5-.21-1.97-.63-.48-.42-.71-1.09-.71-2.02,0-.32,0-.63.01-.91,0-.29.01-.63.01-1.04v-4.47h-1.55v-1.09l1.7-.21.8-2.88h1.7l-.08,2.9h2.52v1.28h-2.54v6.19c0,.52.1.9.3,1.13.2.24.47.36.81.36.38,0,.8-.18,1.28-.53l.5.53c-.27.43-.63.77-1.09,1.02-.46.25-1.02.37-1.68.37Z"/><path class="cls-1" d="m178.95,15.6v-.86l1.39-.27c.01-.52.02-1.08.02-1.69v-2.57c0-.57,0-1.05-.01-1.44,0-.38-.02-.79-.05-1.21l-1.49-.19v-.8l3.78-1.32.34.21-.06,2.96v4.36c0,.61,0,1.18.02,1.71l1.28.25v.86h-5.21Zm2.65-12.31c-.45,0-.83-.14-1.13-.42-.31-.28-.46-.64-.46-1.07s.15-.81.46-1.09c.31-.28.69-.42,1.13-.42s.82.14,1.12.42c.3.28.45.64.45,1.09s-.15.79-.45,1.07c-.3.28-.68.42-1.12.42Z"/><path class="cls-1" d="m192.63,15.79l-.17-1.85c-1.02,1.3-2.21,1.95-3.57,1.95-.87,0-1.56-.28-2.09-.85-.52-.57-.78-1.54-.77-2.93l.08-5.19-1.37-.29v-.82l3.68-.44.25.23-.1,2.94v3.49c0,.78.12,1.33.37,1.65s.6.47,1.06.47c.39,0,.79-.11,1.21-.34.41-.22.81-.51,1.19-.86l.06-6.03-1.32-.29v-.78l3.59-.48.27.23-.06,2.94v5.92l1.28.27v.86l-3.59.19Z"/><path class="cls-1" d="m197.58,15.6v-.86l1.37-.27c.01-.52.02-1.08.02-1.69v-2.7c0-.57,0-1.03-.01-1.38,0-.34-.02-.72-.05-1.14l-1.47-.19v-.8l3.51-1.32.34.21.15,1.64c.5-.57,1.05-1.03,1.65-1.35.59-.33,1.21-.49,1.86-.49,1.36,0,2.23.64,2.62,1.91.56-.67,1.14-1.16,1.74-1.46.6-.3,1.22-.45,1.87-.45.95,0,1.67.29,2.14.88.48.59.71,1.53.71,2.81v3.85c0,.6,0,1.16.02,1.69l1.28.25v.86h-5.12v-.86l1.3-.27c.01-.52.02-1.07.02-1.67v-3.54c0-.88-.12-1.48-.35-1.79-.23-.31-.61-.46-1.14-.46-.74,0-1.51.36-2.31,1.07.01.14.02.29.03.44,0,.15.01.31.01.48v3.79c0,.6,0,1.16.02,1.69l1.26.25v.86h-5.15v-.86l1.34-.27c.01-.52.02-1.07.02-1.67v-3.5c0-.85-.11-1.45-.33-1.79-.22-.34-.6-.5-1.14-.5-.39,0-.78.09-1.17.28-.39.19-.76.44-1.12.77v4.73c0,.6,0,1.17.02,1.7l1.24.25v.86h-5.19Z"/><path class="cls-1" d="m226.39,15.9c-.95,0-1.81-.21-2.57-.63-.76-.42-1.37-1.03-1.82-1.83-.45-.8-.67-1.75-.67-2.86s.23-2.08.7-2.88c.47-.8,1.09-1.41,1.86-1.83s1.6-.63,2.5-.63,1.73.21,2.5.63,1.39,1.03,1.87,1.82c.48.79.71,1.75.71,2.89s-.23,2.08-.68,2.87-1.06,1.4-1.83,1.82c-.76.42-1.62.63-2.57.63Zm0-1.03c.76,0,1.33-.35,1.73-1.05.4-.7.6-1.77.6-3.21,0-2.88-.78-4.33-2.33-4.33s-2.31,1.44-2.31,4.33c0,1.44.2,2.51.59,3.21.39.7.97,1.05,1.72,1.05Z"/><path class="cls-1" d="m232.54,15.6v-.86l1.41-.27c.01-.55.02-1.09.03-1.64s.01-1.09.01-1.64v-4.37h-1.55v-1.09l1.62-.21c.11-1.04.28-1.87.51-2.51.23-.64.59-1.2,1.08-1.69s1-.82,1.56-1.02c.57-.2,1.12-.3,1.65-.3s1.03.1,1.46.29c.43.2.7.54.81,1.03-.01.32-.14.6-.39.82-.25.22-.58.34-1,.34-.6,0-1.17-.35-1.7-1.05l-.38-.38s-.09.07-.15.13c-.38.38-.65.91-.82,1.6-.17.69-.24,1.61-.21,2.77h2.58v1.28h-2.54v4.37c0,.53,0,1.07.01,1.61,0,.54.02,1.08.03,1.63l1.76.31v.86h-5.8Z"/><path class="cls-1" d="m244.92,2.67v-.99h6.55v.99l-1.76.19c-.01.85-.02,1.72-.03,2.59,0,.88-.01,1.75-.01,2.64v2.75c0,1.34-.04,2.45-.13,3.33s-.24,1.6-.46,2.16c-.22.57-.55,1.07-.99,1.5-.87.87-1.93,1.3-3.19,1.3-.48,0-.91-.09-1.31-.26-.4-.18-.68-.48-.85-.91.04-.43.2-.76.47-.97.27-.21.61-.32,1-.32.32,0,.62.07.88.21.27.14.55.36.86.67l.46.48c.25-.31.42-.69.51-1.16.09-.46.14-1.04.14-1.72,0-.41,0-.91-.01-1.5,0-.6-.02-1.36-.04-2.29s-.04-2.09-.05-3.46c-.01-1.38-.04-3.06-.06-5.03l-1.97-.21Z"/><path class="cls-1" d="m260.25,15.85c-.56,0-1.02-.14-1.36-.42-.35-.28-.59-.67-.71-1.16-.52.53-.99.93-1.41,1.21-.42.27-.97.41-1.64.41-.78,0-1.45-.23-1.98-.68-.54-.45-.81-1.11-.81-1.96,0-.45.1-.86.31-1.25.21-.38.58-.75,1.12-1.08s1.31-.66,2.32-.99c.28-.1.59-.2.94-.29.35-.1.71-.2,1.07-.29v-.59c0-.98-.14-1.64-.41-1.98-.27-.34-.75-.51-1.44-.51-.13,0-.26,0-.41.02-.15.01-.3.04-.45.06l-.25,1.16c-.06.5-.2.88-.44,1.11s-.53.36-.88.36c-.67,0-1.06-.31-1.18-.94.13-.84.58-1.51,1.35-2.02.78-.5,1.8-.76,3.08-.76s2.11.29,2.67.87.84,1.56.84,2.93v4.58c0,.63.2.95.61.95.27,0,.51-.15.73-.46l.48.42c-.25.48-.55.82-.89,1.02-.34.2-.77.3-1.27.3Zm-5.46-3.04c0,.55.14.94.43,1.19.29.25.64.37,1.06.37.24,0,.48-.06.71-.17.24-.11.61-.34,1.11-.69v-3.32c-.29.1-.57.19-.83.27-.26.08-.48.16-.66.23-.7.28-1.18.6-1.44.97-.26.36-.39.75-.39,1.16Z"/><path class="cls-1" d="m262.74,20.5v-.86l1.43-.27c.01-.62.02-1.21.03-1.77s.01-1.12.01-1.65v-5.86c0-.57,0-1.03-.01-1.38,0-.34-.02-.72-.05-1.14l-1.47-.19v-.8l3.49-1.32.34.21.1,1.28c.95-.99,2-1.49,3.15-1.49.76,0,1.44.21,2.06.62.62.41,1.1,1.01,1.46,1.8.36.78.54,1.74.54,2.86s-.2,2.06-.6,2.87-.93,1.42-1.59,1.86c-.66.43-1.39.65-2.21.65-.52,0-1-.1-1.45-.29s-.88-.51-1.28-.94v1.26c0,.52,0,1.06.01,1.63,0,.57.02,1.16.03,1.77l1.64.32v.86h-5.63Zm6.03-13.75c-.32,0-.65.08-.98.25-.33.17-.68.39-1.04.67v5.94c.59.55,1.21.82,1.87.82.7,0,1.29-.3,1.77-.91.48-.61.72-1.56.72-2.87s-.22-2.26-.65-2.92c-.43-.66-1-.99-1.7-.99Z"/><path class="cls-1" d="m283.17,15.85c-.56,0-1.02-.14-1.36-.42-.35-.28-.59-.67-.71-1.16-.52.53-.99.93-1.41,1.21-.42.27-.97.41-1.64.41-.78,0-1.45-.23-1.98-.68-.54-.45-.81-1.11-.81-1.96,0-.45.1-.86.31-1.25.21-.38.58-.75,1.12-1.08s1.31-.66,2.32-.99c.28-.1.59-.2.94-.29.35-.1.71-.2,1.07-.29v-.59c0-.98-.14-1.64-.41-1.98-.27-.34-.75-.51-1.44-.51-.13,0-.26,0-.41.02-.15.01-.3.04-.45.06l-.25,1.16c-.06.5-.2.88-.44,1.11s-.53.36-.88.36c-.67,0-1.06-.31-1.18-.94.13-.84.58-1.51,1.35-2.02.78-.5,1.8-.76,3.08-.76s2.11.29,2.67.87.84,1.56.84,2.93v4.58c0,.63.2.95.61.95.27,0,.51-.15.73-.46l.48.42c-.25.48-.55.82-.89,1.02-.34.2-.77.3-1.27.3Zm-5.46-3.04c0,.55.14.94.43,1.19.29.25.64.37,1.06.37.24,0,.48-.06.71-.17.24-.11.61-.34,1.11-.69v-3.32c-.29.1-.57.19-.83.27-.26.08-.48.16-.66.23-.7.28-1.18.6-1.44.97-.26.36-.39.75-.39,1.16Z"/><path class="cls-1" d="m286.43,15.6v-.86l1.37-.27c.01-.52.02-1.08.02-1.69v-2.7c0-.57,0-1.03-.01-1.38,0-.34-.02-.72-.05-1.14l-1.47-.19v-.8l3.51-1.32.34.21.15,1.62c1.08-1.22,2.27-1.83,3.57-1.83.91,0,1.61.3,2.11.9.5.6.75,1.55.75,2.86v3.8c0,.6,0,1.16.02,1.68l1.28.25v.86h-5.19v-.86l1.34-.27c.01-.52.02-1.07.02-1.67v-3.6c0-.83-.11-1.4-.34-1.71-.22-.31-.6-.47-1.13-.47-.74,0-1.53.34-2.35,1.03v4.75c0,.6,0,1.17.02,1.7l1.24.25v.86h-5.19Z"/><path class="cls-1" d="m303.89,15.9c-.98,0-1.84-.21-2.58-.63s-1.32-1.03-1.74-1.82c-.42-.79-.63-1.73-.63-2.82s.24-2.08.72-2.89,1.11-1.42,1.89-1.85c.78-.43,1.61-.64,2.49-.64.83,0,1.55.18,2.16.52.62.35,1.1.84,1.44,1.47.34.63.51,1.37.51,2.23,0,.45-.04.83-.13,1.15h-6.43c.06,1.2.37,2.11.96,2.71.58.6,1.31.9,2.19.9.62,0,1.14-.12,1.56-.37.43-.24.82-.56,1.17-.96l.61.55c-.41.77-.96,1.37-1.67,1.8-.71.43-1.55.64-2.53.64Zm0-9.64c-.34,0-.67.11-1,.33-.33.22-.61.57-.84,1.06-.23.49-.37,1.15-.43,2h2.88c.5,0,.84-.1,1.01-.31s.25-.5.25-.88c0-.64-.18-1.17-.55-1.57-.36-.41-.81-.61-1.32-.61Z"/><path class="cls-1" d="m313.23,15.9c-.64,0-1.24-.07-1.77-.22-.54-.15-1.07-.37-1.61-.66l-.02-2.44h1.41l.38,1.95c.5.21,1.05.31,1.64.31.71,0,1.25-.13,1.6-.38.35-.25.52-.6.52-1.05,0-.39-.14-.71-.42-.96-.28-.24-.76-.48-1.43-.7l-1.05-.36c-.78-.25-1.4-.62-1.86-1.11-.46-.49-.68-1.11-.68-1.85,0-.59.15-1.12.46-1.61.31-.48.76-.87,1.35-1.15.59-.29,1.32-.43,2.17-.43.6,0,1.15.07,1.65.22.5.15.99.36,1.48.64l-.1,2.21h-1.39l-.38-1.76c-.39-.17-.83-.25-1.3-.25-.56,0-.99.12-1.3.36-.31.24-.46.56-.46.97,0,.38.13.68.39.91.26.23.75.47,1.46.7l.84.25c1.02.35,1.75.78,2.18,1.3.43.52.65,1.14.65,1.87,0,.94-.38,1.71-1.14,2.32s-1.85.91-3.27.91Z"/><path class="cls-1" d="m323.98,15.9c-.98,0-1.84-.21-2.58-.63s-1.32-1.03-1.74-1.82c-.42-.79-.63-1.73-.63-2.82s.24-2.08.72-2.89,1.11-1.42,1.89-1.85c.78-.43,1.61-.64,2.49-.64.83,0,1.55.18,2.16.52.62.35,1.1.84,1.44,1.47.34.63.51,1.37.51,2.23,0,.45-.04.83-.13,1.15h-6.43c.06,1.2.37,2.11.96,2.71.58.6,1.31.9,2.19.9.62,0,1.14-.12,1.56-.37.43-.24.82-.56,1.17-.96l.61.55c-.41.77-.96,1.37-1.67,1.8-.71.43-1.55.64-2.53.64Zm0-9.64c-.34,0-.67.11-1,.33-.33.22-.61.57-.84,1.06-.23.49-.37,1.15-.43,2h2.88c.5,0,.84-.1,1.01-.31s.25-.5.25-.88c0-.64-.18-1.17-.55-1.57-.36-.41-.81-.61-1.32-.61Z"/><path class="cls-1" d="m338.85,15.96c-.78,0-1.56-.1-2.33-.29s-1.43-.47-1.97-.82l.13-3.02h1.62l.42,2.54c.32.14.65.25.99.33.34.08.71.12,1.13.12.87,0,1.55-.21,2.05-.62.5-.41.75-.96.75-1.65,0-.62-.18-1.1-.52-1.45-.35-.35-.91-.68-1.68-.99l-.86-.36c-1.15-.49-2.06-1.08-2.74-1.76-.68-.69-1.02-1.58-1.02-2.69,0-.83.21-1.54.63-2.13.42-.6,1-1.05,1.75-1.37.75-.31,1.61-.47,2.59-.47.73,0,1.41.1,2.04.29s1.18.46,1.66.8l-.15,2.83h-1.6l-.42-2.44c-.49-.22-1.02-.34-1.58-.34-.7,0-1.29.19-1.78.56-.49.37-.74.9-.74,1.59,0,.6.19,1.09.57,1.47.38.38.91.71,1.6.99l.9.38c1.37.57,2.35,1.19,2.93,1.85s.87,1.5.87,2.54c0,1.23-.47,2.23-1.4,2.98-.93.76-2.21,1.13-3.83,1.13Z"/><path class="cls-1" d="m349.06,15.9c-.84,0-1.5-.21-1.97-.63-.48-.42-.71-1.09-.71-2.02,0-.32,0-.63.01-.91,0-.29.01-.63.01-1.04v-4.47h-1.55v-1.09l1.7-.21.8-2.88h1.7l-.08,2.9h2.52v1.28h-2.54v6.19c0,.52.1.9.3,1.13.2.24.47.36.81.36.38,0,.8-.18,1.28-.53l.5.53c-.27.43-.63.77-1.09,1.02-.46.25-1.02.37-1.68.37Z"/><path class="cls-1" d="m360.46,15.79l-.17-1.85c-1.02,1.3-2.21,1.95-3.57,1.95-.87,0-1.56-.28-2.09-.85-.52-.57-.78-1.54-.77-2.93l.08-5.19-1.37-.29v-.82l3.68-.44.25.23-.1,2.94v3.49c0,.78.12,1.33.37,1.65s.6.47,1.06.47c.39,0,.79-.11,1.21-.34.41-.22.81-.51,1.19-.86l.06-6.03-1.32-.29v-.78l3.59-.48.27.23-.06,2.94v5.92l1.28.27v.86l-3.59.19Z"/><path class="cls-1" d="m372.46,15.83l-.17-1.32c-.39.45-.83.79-1.3,1.03-.48.24-1.02.36-1.64.36-.83,0-1.56-.21-2.19-.63-.64-.42-1.14-1.02-1.5-1.81-.36-.78-.55-1.71-.55-2.79s.21-2.06.62-2.88c.41-.81.97-1.44,1.66-1.88.69-.44,1.45-.66,2.28-.66.53,0,1.01.1,1.44.29.43.2.83.52,1.21.97V2.18l-1.64-.21v-.82l3.84-.94.31.19-.08,2.96v11.15l1.36.23v.86l-3.65.23Zm-4.66-5.21c0,1.27.24,2.22.72,2.85s1.1.93,1.84.93c.36,0,.7-.07,1-.22.3-.15.58-.36.85-.64v-6.03c-.62-.53-1.23-.8-1.83-.8-.7,0-1.31.31-1.82.94-.51.63-.77,1.62-.77,2.96Z"/><path class="cls-1" d="m377.37,15.6v-.86l1.39-.27c.01-.52.02-1.08.02-1.69v-2.57c0-.57,0-1.05-.01-1.44,0-.38-.02-.79-.05-1.21l-1.49-.19v-.8l3.78-1.32.34.21-.06,2.96v4.36c0,.61,0,1.18.02,1.71l1.28.25v.86h-5.21Zm2.65-12.31c-.45,0-.83-.14-1.13-.42-.31-.28-.46-.64-.46-1.07s.15-.81.46-1.09c.31-.28.69-.42,1.13-.42s.82.14,1.12.42c.3.28.45.64.45,1.09s-.15.79-.45,1.07c-.3.28-.68.42-1.12.42Z"/><path class="cls-1" d="m388.54,15.9c-.98,0-1.84-.21-2.58-.63s-1.32-1.03-1.74-1.82c-.42-.79-.63-1.73-.63-2.82s.24-2.08.72-2.89,1.11-1.42,1.89-1.85c.78-.43,1.61-.64,2.49-.64.83,0,1.55.18,2.16.52.62.35,1.1.84,1.44,1.47.34.63.51,1.37.51,2.23,0,.45-.04.83-.13,1.15h-6.43c.06,1.2.37,2.11.96,2.71.58.6,1.31.9,2.19.9.62,0,1.14-.12,1.56-.37.43-.24.82-.56,1.17-.96l.61.55c-.41.77-.96,1.37-1.67,1.8-.71.43-1.55.64-2.53.64Zm0-9.64c-.34,0-.67.11-1,.33-.33.22-.61.57-.84,1.06-.23.49-.37,1.15-.43,2h2.88c.5,0,.84-.1,1.01-.31s.25-.5.25-.88c0-.64-.18-1.17-.55-1.57-.36-.41-.81-.61-1.32-.61Z"/><path class="cls-1" d="m397.87,15.9c-.64,0-1.24-.07-1.77-.22-.54-.15-1.07-.37-1.61-.66l-.02-2.44h1.41l.38,1.95c.5.21,1.05.31,1.64.31.71,0,1.25-.13,1.6-.38.35-.25.52-.6.52-1.05,0-.39-.14-.71-.42-.96-.28-.24-.76-.48-1.43-.7l-1.05-.36c-.78-.25-1.4-.62-1.86-1.11-.46-.49-.68-1.11-.68-1.85,0-.59.15-1.12.46-1.61.31-.48.76-.87,1.35-1.15.59-.29,1.32-.43,2.17-.43.6,0,1.15.07,1.65.22.5.15.99.36,1.48.64l-.1,2.21h-1.39l-.38-1.76c-.39-.17-.83-.25-1.3-.25-.56,0-.99.12-1.3.36-.31.24-.46.56-.46.97,0,.38.13.68.39.91.26.23.75.47,1.46.7l.84.25c1.02.35,1.75.78,2.18,1.3.43.52.65,1.14.65,1.87,0,.94-.38,1.71-1.14,2.32s-1.85.91-3.27.91Z"/><path class="cls-2" d="m6.64,30.81c1.09,1.13,2.79,2.16,4.33,2.67-.22.18-.49.52-.62.77-1.56-.62-3.31-1.81-4.46-3.11v3.26h-.9v-3.23c-1.14,1.28-2.84,2.42-4.37,3.05-.14-.23-.41-.56-.62-.74,1.51-.53,3.18-1.56,4.25-2.67H1.34v-4.37h3.65v-1.01H.3v-.84h4.69v-1.13h.9v1.13h4.81v.84h-4.81v1.01h3.85v4.37h-3.09Zm-4.44-2.52h2.78v-1.14h-2.78v1.14Zm0,1.82h2.78v-1.16h-2.78v1.16Zm3.68-2.96v1.14h2.95v-1.14h-2.95Zm2.95,1.8h-2.95v1.16h2.95v-1.16Z"/><path class="cls-2" d="m22.31,25.82c-.48.82-1.62,2.36-2.99,3.31l-.79-.64c1.1-.64,2.23-1.94,2.63-2.69h-6.84c-.44,0-.9.02-1.37.07v-1.09c.42.06.92.11,1.37.11h6.88c.23,0,.66-.04.84-.07l.59.56c-.08.12-.24.3-.32.43Zm-7.81,8.12l-.89-.72c.34-.11.74-.3,1.08-.54,1.86-1.14,2.12-2.84,2.12-4.85,0-.29-.01-.55-.05-.86h1.08c0,3.25-.29,5.44-3.35,6.97Z"/><path class="cls-2" d="m27.75,28.69l-.54.84c-.6-.43-1.89-1.27-2.63-1.64l.54-.82c.71.38,2.11,1.25,2.63,1.62Zm1.4,2.87c1.99-1.14,3.57-2.71,4.55-4.4l.58,1c-1.04,1.61-2.7,3.15-4.62,4.28-1.2.71-2.85,1.26-3.97,1.49l-.55-.97c1.31-.23,2.81-.71,4.02-1.39Zm.38-5.49l-.56.83c-.58-.44-1.88-1.31-2.58-1.71l.54-.8c.71.4,2.09,1.32,2.6,1.69Zm3.63.35l-.68.31c-.3-.62-.7-1.34-1.09-1.9l.66-.28c.3.43.84,1.3,1.12,1.86Zm1.61-.6l-.68.31c-.32-.64-.73-1.32-1.14-1.86l.67-.29c.32.42.85,1.28,1.15,1.83Z"/><path class="cls-2" d="m46.31,25.82c-.48.82-1.62,2.36-2.99,3.31l-.79-.64c1.1-.64,2.23-1.94,2.63-2.69h-6.84c-.44,0-.9.02-1.37.07v-1.09c.42.06.92.11,1.37.11h6.88c.23,0,.66-.04.84-.07l.59.56c-.08.12-.24.3-.32.43Zm-7.81,8.12l-.89-.72c.34-.11.74-.3,1.08-.54,1.86-1.14,2.12-2.84,2.12-4.85,0-.29-.01-.55-.05-.86h1.08c0,3.25-.29,5.44-3.35,6.97Z"/><path class="cls-2" d="m57.41,24.29v9.94h-.94v-.73h-5.95v.78h-.9v-9.99h7.78Zm-6.88.88v3.24h5.95v-3.24h-5.95Zm5.95,7.46v-3.35h-5.95v3.35h5.95Z"/><path class="cls-2" d="m66.48,26.87c1,2.05,2.72,3.96,4.61,4.87-.22.18-.53.53-.66.78-1.81-1-3.42-2.82-4.5-4.89v3.67h2.28v.89h-2.28v2.23h-.92v-2.23h-2.34v-.89h2.34v-3.67c-1.1,2.08-2.72,3.89-4.49,4.91-.13-.22-.43-.55-.64-.72,1.82-.95,3.56-2.89,4.57-4.94h-4.16v-.89h4.71v-2.51h.92v2.51h4.75v.89h-4.2Z"/><path class="cls-2" d="m72.12,24.12h4.2v.82h-1.86c-.19.98-.44,1.96-.74,2.84h2.39v5.13h-2.41v.96h-.76v-4.32c-.19.35-.4.67-.62.96-.06-.2-.26-.71-.41-.95.84-1.13,1.39-2.81,1.72-4.63h-1.5v-.82Zm3.19,4.45h-1.62v3.54h1.62v-3.54Zm7.63.68h-1.34v5.16h-.85v-5.16h-1.96c-.04,1.82-.35,3.81-1.7,5.22-.14-.16-.47-.41-.67-.52,1.22-1.28,1.49-3.09,1.52-4.7h-1.31v-.85h1.32v-3.44h-.98v-.84h5.74v.84h-1.12v3.44h1.34v.85Zm-2.19-.85v-3.44h-1.94v3.44h1.94Z"/><path class="cls-2" d="m93.71,33.47c.32,0,.38-.23.42-1.79.19.17.59.31.84.38-.08,1.81-.34,2.27-1.16,2.27h-1.25c-.91,0-1.18-.25-1.18-1.24v-2.54h-2.28c-.22,1.43-1.15,2.94-4.47,3.89-.13-.22-.38-.53-.6-.73,2.97-.82,3.9-2.04,4.15-3.15h-3.33v-.83h3.43v-1.46h.89v1.46h3.14v3.37c0,.32.05.37.38.37h1.02Zm-5.22-8.1c-.28,1.97-1.03,3.08-3.78,3.66-.07-.2-.29-.55-.46-.71,2.46-.47,3.08-1.36,3.3-2.95h-2.24v1.33h-.88v-2.15h4.58v-1.1h.9v1.1h4.68v2.05h-.92v-1.24h-2.46v2.1c0,.29.07.34.5.34h1.5c.32,0,.4-.12.42-.91.19.14.54.28.79.34-.1,1.09-.35,1.37-1.13,1.37h-1.68c-1.04,0-1.28-.24-1.28-1.12v-2.11h-1.85Z"/><path class="cls-2" d="m102.28,28.1c-.62.44-1.27.86-1.93,1.25h4.95v5.01h-.91v-.34h-4.86v.38h-.88v-4.15c-.72.35-1.46.67-2.19.95-.11-.19-.4-.55-.56-.73,1.74-.61,3.42-1.4,4.93-2.37h-4.67v-.8h4.1v-1.54h-3.06v-.79h3.06v-1.5h.88v1.5h2.96v.49c.5-.5.96-1.03,1.37-1.58l.76.41c-.84,1.1-1.82,2.11-2.91,3.01h3.45v.8h-4.49Zm2.11,2h-4.86v1.19h4.86v-1.19Zm0,3.14v-1.25h-4.86v1.25h4.86Zm-2.41-5.95c.65-.48,1.26-1,1.82-1.54h-2.66v1.54h.84Z"/><path class="cls-2" d="m110.31,27.44v6.96h-.84v-6.96h-1.49v-.82h1.49v-3.15h.84v3.15h1.42v.82h-1.42Zm4.45,2.28s0,.24-.01.36c-.1,2.72-.19,3.68-.43,4.01-.16.2-.34.28-.59.3-.2.02-.55.02-.89.01-.01-.22-.08-.53-.19-.71.34.02.6.02.74.02.13,0,.22-.02.29-.12.14-.2.24-1,.31-3.15h-.96c-.19,1.68-.66,3.06-1.74,3.99-.11-.17-.34-.43-.5-.55.94-.78,1.32-1.99,1.48-3.44h-1.14v-.72h1.21c.02-.4.04-.82.05-1.24h.78c-.01.42-.04.84-.06,1.24h1.66Zm.42-4.22c-.41,1.33-1.26,2.29-2.96,2.93-.08-.18-.29-.48-.46-.62,1.46-.5,2.19-1.27,2.57-2.3h-2.1v-.73h2.3c.08-.41.13-.84.16-1.31h.83c-.02.47-.08.9-.16,1.31h2.97s-.01.23-.04.35c-.16,1.76-.31,2.49-.59,2.77-.19.2-.4.28-.71.3-.26.01-.74.01-1.25-.01-.02-.24-.11-.55-.24-.77.5.05.97.06,1.16.06.17,0,.26-.01.36-.11.18-.16.29-.66.41-1.86h-2.27Zm3.62,4.22s0,.25-.01.36c-.08,2.72-.17,3.68-.42,4.01-.16.19-.34.28-.59.3-.23.02-.6.02-.98.01-.02-.23-.1-.54-.19-.73.36.02.67.02.82.02s.23,0,.3-.11c.14-.2.23-.98.3-3.14h-1.07c-.2,1.69-.67,3.05-1.82,3.96-.11-.17-.32-.43-.52-.56,1-.76,1.39-1.93,1.56-3.39h-1.09v-.72h1.16c.02-.4.04-.82.05-1.25h.79c-.01.43-.04.85-.06,1.25h1.78Z"/><path class="cls-2" d="m123.83,26.18h-3.85v-.73h3.85v.73Zm-.31,7.53h-2.34v.56h-.72v-4.02h3.06v3.45Zm-3.05-6.64h3.05v.71h-3.05v-.71Zm0,1.58h3.05v.72h-3.05v-.72Zm3.02-4.05h-2.95v-.72h2.95v.72Zm-2.31,6.39v2h1.6v-2h-1.6Zm9.17.47c-.3.53-.72,1.02-1.19,1.45.26.58.58.86.91.86.2,0,.32-.25.38-1.03.14.16.38.26.56.34-.13,1.08-.42,1.42-1.01,1.43-.6,0-1.08-.38-1.45-1.1-.47.35-.97.65-1.49.88-.1-.13-.3-.35-.46-.48.59-.25,1.18-.6,1.69-1.02-.18-.53-.32-1.16-.42-1.9h-1.61v.82c.42-.06.84-.12,1.27-.18l.02.66-1.3.19v1.22c0,.4-.1.6-.4.71-.29.11-.74.11-1.44.11-.04-.18-.16-.47-.25-.67.5.01.97.01,1.1.01.14-.01.18-.05.18-.17v-1.09l-1.61.24-.12-.72c.49-.05,1.08-.12,1.73-.2v-.92h-1.68v-.68h1.68v-.8c-.44.06-.89.12-1.3.16-.04-.16-.12-.41-.2-.56,1.04-.12,2.29-.34,2.96-.58l.54.55c-.35.11-.77.2-1.2.29v.95h1.52c-.05-.53-.08-1.12-.11-1.73h.77c.01.64.05,1.21.1,1.73h2.3v.68h-2.22c.07.52.17.96.28,1.34.31-.34.58-.68.77-1.07l.66.3Zm-3.43-6.16h-2.67v-.66h1.46c-.14-.3-.38-.64-.6-.92l.64-.25c.3.34.62.83.76,1.15l-.06.02h1.85c.23-.35.52-.85.66-1.19l.79.24c-.22.34-.44.67-.65.95h1.5v.66h-2.82v.77h2.51v.61h-2.51v.84h3.07v.68h-7.03v-.68h3.11v-.84h-2.29v-.61h2.29v-.77Zm2.52,3.19c.49.31,1.06.78,1.32,1.12l-.54.46c-.26-.36-.82-.85-1.3-1.18l.52-.4Z"/><path class="cls-2" d="m137.83,23.48c1.26,1.76,3.35,3.32,5.23,4.1-.2.22-.42.53-.58.79-1.85-.9-3.95-2.49-5.06-4.04-.97,1.44-2.91,3.08-4.95,4.09-.1-.2-.32-.53-.52-.71,2.05-.98,4.04-2.71,4.96-4.23h.91Zm-5.25,5.96h9.86v.83h-5.62c-.42.89-.94,1.92-1.42,2.76,1.49-.05,3.18-.11,4.86-.18-.49-.56-1.06-1.15-1.58-1.62l.76-.41c1.1.95,2.27,2.24,2.82,3.13l-.8.49c-.14-.24-.32-.52-.55-.8-2.94.14-6.04.28-8.1.35l-.12-.88c.52-.01,1.12-.02,1.76-.05.46-.83.97-1.92,1.3-2.79h-3.15v-.83Zm7.71-2.28v.82h-5.67v-.82h5.67Z"/></g></svg>