<?xml version="1.0" encoding="UTF-8"?><svg id="_レイヤー_2" xmlns="http://www.w3.org/2000/svg" viewBox="0 0 260.84 39.64"><defs><style>.cls-1{fill:#be4682;}</style></defs><g id="_レイヤー_1-2"><path class="cls-1" d="m8.95,15.91c-2.01,1.61-4.61,3.07-7.79,4.36l-1.17-2.44c3.18-1.14,5.78-2.44,7.79-3.89H2.09V5.43h6.86v-1.1H.48v-2.29h8.47V.37h2.99v1.67h8.47v2.29h-8.47v1.1h6.86v8.49h-5.7c2.01,1.45,4.6,2.75,7.79,3.89l-1.17,2.44c-3.18-1.29-5.78-2.74-7.79-4.36v4.62h-2.99v-4.62Zm-4.11-7.15h4.11v-1.28h-4.11v1.28Zm4.11,3.19v-1.34h-4.11v1.34h4.11Zm7.11-3.19v-1.28h-4.11v1.28h4.11Zm-4.11,3.19h4.11v-1.34h-4.11v1.34Z"/><path class="cls-1" d="m23.28,5.06v-2.57h17.82v2.57c-.43,1.44-1.16,2.8-2.21,4.1-1.05,1.3-2.28,2.35-3.69,3.16l-1.72-2.27c2.32-1.39,3.81-3.06,4.47-4.99h-14.67Zm5.72,1.76h2.95c0,2.57-.19,4.64-.58,6.23s-1.01,2.87-1.86,3.86c-.85.99-2.06,1.85-3.63,2.59l-1.52-2.35c1.8-.85,3.03-1.98,3.67-3.4.65-1.42.97-3.72.97-6.92Z"/><path class="cls-1" d="m44.16,7.11c1.92.32,4.34.79,7.26,1.41l-.55,2.6c-2.63-.56-5.04-1.02-7.24-1.39l.53-2.62Zm14.67-2.11l2.79.48c-.85,4.63-2.56,8.03-5.13,10.19-2.57,2.16-6.42,3.46-11.55,3.92l-.44-2.79c4.58-.4,7.92-1.46,10.03-3.19,2.11-1.73,3.54-4.6,4.29-8.6Zm-13.64-3.23c2.33.38,4.83.84,7.48,1.39l-.55,2.64c-2.65-.54-5.15-1-7.48-1.39l.55-2.64Zm14.63,1.8l-2.07.99c-.47-.97-1.03-2.03-1.67-3.19l2.07-1.03c.6,1.13,1.16,2.21,1.67,3.23Zm3.39-.26l-2.11,1.01c-.79-1.53-1.36-2.61-1.72-3.26l2.11-1.06c.67,1.23,1.25,2.33,1.72,3.3Z"/><path class="cls-1" d="m65.67,5.06v-2.57h17.82v2.57c-.43,1.44-1.16,2.8-2.21,4.1-1.05,1.3-2.28,2.35-3.69,3.16l-1.72-2.27c2.32-1.39,3.81-3.06,4.47-4.99h-14.67Zm5.72,1.76h2.95c0,2.57-.19,4.64-.58,6.23s-1.01,2.87-1.86,3.86c-.85.99-2.06,1.85-3.63,2.59l-1.52-2.35c1.8-.85,3.03-1.98,3.67-3.4.65-1.42.97-3.72.97-6.92Z"/><path class="cls-1" d="m86.86,1.17h16.28v19.14h-2.93v-1.23h-10.43v1.23h-2.93V1.17Zm2.93,7.57h10.43V3.67h-10.43v5.06Zm0,2.42v5.5h10.43v-5.5h-10.43Z"/><path class="cls-1" d="m113.68,6.2h-7v-2.51h8.36V.37h2.95v3.32h8.36v2.51h-7c1.67,3.14,4.29,6.27,7.85,9.39l-1.54,2.53c-.97-.84-1.94-1.8-2.93-2.9v2.05h-4.75v3.48h-2.95v-3.48h-4.75v-2.05c-.98,1.1-1.96,2.07-2.93,2.9l-1.54-2.53c3.56-3.12,6.18-6.26,7.85-9.39Zm1.36,2.55c-1.31,2.17-2.78,4.2-4.42,6.09h4.42v-6.09Zm7.37,6.09c-1.64-1.89-3.12-3.92-4.42-6.09v6.09h4.42Z"/><path class="cls-1" d="m128.66,3.59V1.17h8.27v2.42h-3.34c-.22,1.44-.58,2.87-1.08,4.29h4.42v10.1c.67-.81,1.18-1.71,1.51-2.7.33-.99.56-2.43.69-4.32h-1.67v-2.42h1.78c.03-1.32.04-2.44.04-3.37v-1.58h-1.58V1.17h11.04v2.42h-1.8v4.95h2.02v2.42h-2.02v9.28h-2.86v-9.28h-2.16c-.16,2.49-.48,4.42-.95,5.79-.47,1.36-1.17,2.6-2.11,3.7l-2-2.11h-4.33v1.69h-2.55v-7.7c-.41.72-.88,1.39-1.41,2.02l-.64-3.43c1.52-1.94,2.53-4.38,3.01-7.33h-2.29Zm3.87,12.41h2.07v-5.7h-2.07v5.7Zm9.5-7.46h2.05V3.59h-2v1.58c0,.87-.01,1.99-.04,3.37Z"/><path class="cls-1" d="m167.13,17.75c.65,0,1.04-.17,1.18-.52.14-.34.27-1.47.38-3.38l2.64.31c-.06,1.06-.11,1.87-.17,2.44-.05.57-.15,1.12-.31,1.64-.15.52-.31.88-.46,1.08-.15.2-.43.38-.84.54-.4.16-.81.25-1.21.27-.4.02-.99.03-1.77.03-1.55,0-2.54-.15-2.95-.45-.41-.3-.62-1.01-.62-2.12v-3.74h-3.19c-.48,1.63-1.37,2.97-2.65,4.03-1.28,1.06-3.13,1.96-5.53,2.71l-1.36-2.29c1.99-.6,3.49-1.23,4.49-1.88,1-.65,1.69-1.51,2.09-2.56h-5.02v-2.42h5.5c.04-.53.07-1.09.07-1.69h2.93c0,.6-.02,1.17-.07,1.69h5.68v5.72c0,.29.05.47.15.52.1.05.45.08,1.03.08Zm-.7-9.59c.56-.03.89-.1,1-.22.11-.12.19-.51.23-1.17l2.77.31c-.04.57-.08,1-.11,1.3-.03.29-.1.58-.22.87-.12.29-.24.48-.37.59-.13.11-.36.21-.69.31-.33.1-.67.15-1.01.17-.34.01-.85.03-1.51.04-.1,0-.27,0-.5.01-.23,0-.4.01-.52.01s-.29,0-.51-.01c-.22,0-.39-.01-.51-.01-1.31-.03-2.12-.14-2.44-.34-.32-.2-.48-.66-.48-1.4v-4h-1.54c-.07,1.61-.75,2.91-2.02,3.89s-3.34,1.72-6.2,2.22l-.7-2.31c2.32-.37,3.91-.84,4.77-1.43.87-.59,1.3-1.38,1.3-2.38h-3.12v2.31h-2.75V2.27h7.96V.07h2.99v2.2h7.96v4h-2.75v-1.65h-3.04v2.82c0,.35.03.56.1.62.07.06.29.1.67.11.06,0,.16,0,.3.01.14,0,.25.01.32.01s.18,0,.32-.01c.14,0,.24-.01.3-.01Z"/><path class="cls-1" d="m183.39,10.19h7.88v10.27h-2.93v-.81h-8.8v.81h-2.93v-6.93c-1.14.46-2.15.82-3.01,1.1l-.95-2.57c2.98-.85,5.76-1.99,8.34-3.41h-8.23v-2.33h7.72v-1.98h-5.83v-2.29h5.83V.26h3.01v1.78h4.36v1.56c.98-.95,1.8-1.88,2.44-2.77l2.18,1.56c-.97,1.29-2.21,2.6-3.72,3.92h4.38v2.33h-7.37c-.5.35-1.29.87-2.38,1.54Zm-3.85,3.7h8.8v-1.43h-8.8v1.43Zm0,2.13v1.45h8.8v-1.45h-8.8Zm7.57-11.68h-3.61v1.98h1.19c.89-.67,1.7-1.33,2.42-1.98Z"/><path class="cls-1" d="m211.59,10.74h3.76c0,1.58,0,2.88-.02,3.88s-.05,1.88-.12,2.63c-.07.75-.13,1.31-.2,1.67s-.18.66-.35.88c-.17.22-.33.35-.48.39-.15.04-.39.05-.69.05-.51,0-1.52-.04-3.01-.11l-.11-1.91c-.4.87-.92,1.66-1.56,2.38l-1.74-1.74c-.12.6-.29.98-.51,1.14-.22.16-.56.24-1.03.24-.41,0-1.36-.04-2.86-.11l-.11-1.91c-.4.87-.92,1.66-1.56,2.38l-1.67-1.74v1.67h-2.82V7.44h-1.58v-2.42h1.58V.59h2.82v4.42h1.85v2.2c2.19-.65,3.67-1.64,4.44-2.97h-3.78V1.87h4.55c.06-.45.09-1,.09-1.65h2.86c0,.63-.03,1.18-.09,1.65h5.59c0,1.2-.01,2.17-.03,2.92s-.07,1.4-.15,1.99c-.08.59-.17,1.02-.27,1.3-.1.28-.27.51-.52.68-.24.18-.49.28-.74.32-.25.04-.6.05-1.06.05h-.44c0,.73,0,1.27-.02,1.61Zm-10.23,0c.01-.4.02-1.03.02-1.89h.62l-1.06-1.41h-1.63v11.13c.6-.7,1.05-1.45,1.34-2.24.29-.79.49-1.88.59-3.28h-1.23v-2.31h1.34Zm1.41,6.93c.69.06,1.2.09,1.54.09.13,0,.23-.03.29-.08.06-.05.11-.24.17-.56.05-.32.08-.78.09-1.39,0-.6.01-1.5.01-2.68h-1.21c-.15,1.91-.44,3.45-.88,4.62Zm6.31-6.93c.01-.35.02-.91.02-1.67-.19,0-.51-.01-.95-.04l-.18-2.35c1.54.07,2.52.11,2.93.11.28,0,.47-.05.58-.14.11-.1.19-.31.23-.64s.07-.91.07-1.75h-3.1c-.78,2.05-2.41,3.63-4.88,4.73,0,.81,0,1.39-.02,1.76h3.61c0,4-.09,6.59-.26,7.77.57-.69,1-1.43,1.29-2.22s.48-1.87.58-3.23h-1.12v-2.31h1.21Zm1.5,6.93c.69.06,1.22.09,1.58.09.13,0,.23-.03.3-.09.07-.06.12-.25.17-.57.04-.32.07-.78.09-1.38.01-.59.02-1.48.02-2.67h-1.28c-.15,1.91-.44,3.45-.88,4.62Z"/><path class="cls-1" d="m217.51,6.73v-2.38h6.86v2.38h-6.86Zm.4-3.3V1.21h6.14v2.22h-6.14Zm2.4,16.41v.79h-2.4v-6.71h6.2v5.92h-3.81Zm-2.2-9.99v-2.16h5.9v2.16h-5.9Zm0,3.1v-2.13h5.9v2.13h-5.9Zm2.2,4.77h1.65v-1.69h-1.65v1.69Zm17.73-5.39v2.22h-1.43l.9.46c-.25.41-.55.83-.9,1.25l1.65.64c-.18,1.32-.46,2.25-.86,2.78-.4.54-.92.8-1.56.8-.91,0-1.72-.52-2.42-1.56-.84.48-1.86.92-3.06,1.3l-.81-2.09c1.06-.29,2.03-.68,2.93-1.17-.23-.66-.44-1.47-.62-2.42h-2.66v.62c.88-.12,1.59-.23,2.13-.35l.29,1.98c-.54.12-1.35.26-2.42.42v1.3c0,.87-.12,1.41-.35,1.64-.23.23-.8.34-1.69.34-.35,0-1.04-.04-2.07-.11l-.13-2.11c.66.07,1.14.11,1.43.11.15,0,.23-.03.25-.08.02-.05.03-.22.03-.52v-.29c-.06,0-.7.04-1.94.13l-.15-2.05c.92-.06,1.62-.11,2.09-.15v-.88h-2.05v-2.22h2.05v-.55c-.34.04-.87.1-1.61.15l-.24-1.85c1.85-.18,3.51-.43,4.99-.77h-5.19v-2.11h5.24v-.75h-4.18v-1.85h4.18v-.7h-4.84V1.69h2.4c-.09-.22-.25-.6-.48-1.14l2.6-.37c.15.31.35.81.62,1.52h2.57c.19-.47.37-.97.53-1.5l2.57.26c-.03.09-.09.27-.18.56s-.16.51-.22.67h2.24v2.22h-4.8v.7h4.14v1.85h-4.14v.75h5.17v2.11h-2.24c.81.81,1.47,1.54,2,2.2l-.97.81h1.21Zm-6.64-2.55h2.49c.03.95.07,1.8.13,2.55h1.67c-.51-.63-1.06-1.25-1.65-1.85l1.45-1.17h-4.8l.44,1.63c-.53.18-1.17.33-1.94.46v.92h2.38c-.09-.95-.15-1.8-.18-2.55Zm3.1,5.74c.31-.29.59-.62.86-.97h-1.06c.07.4.14.72.2.97Zm1.94.97c-.26.31-.63.67-1.1,1.1.23.32.43.48.59.48s.33-.53.51-1.58Z"/><path class="cls-1" d="m256.51,7.37v1.58h-12.45v-1.58c-.75.47-1.81,1.06-3.19,1.78l-1.14-2.4c3.3-1.75,6.2-3.8,8.71-6.16h3.7c2.51,2.36,5.41,4.42,8.71,6.16l-1.14,2.4c-1.38-.72-2.44-1.31-3.19-1.78Zm.18,6.07c1.06,1.97,2.14,4.1,3.26,6.4l-2.57.95c-.38-.82-.7-1.48-.95-1.98-5.28.66-10.24,1.06-14.87,1.21l-.13-2.42c.23-.01.56-.03.98-.04s.8-.03,1.14-.04.67-.03.98-.04c.63-1.13,1.32-2.55,2.07-4.27h-5.76v-2.42h18.92v2.42h-10.03c-.6,1.41-1.23,2.76-1.89,4.05,2.67-.19,5.16-.42,7.48-.68-.28-.56-.65-1.28-1.12-2.16l2.51-.97Zm-1.34-6.84c-1.83-1.23-3.52-2.61-5.06-4.14-1.54,1.53-3.23,2.9-5.06,4.14h10.12Z"/><path d="m.72,27.37h5.39v1.01H1.91v2.93h3.54v1.01H1.91v3.4h4.34v1.01H.72v-9.35Z"/><path d="m7.81,34.92c0-1.5,1.31-2.26,4.26-2.59,0-.89-.29-1.75-1.43-1.75-.8,0-1.53.37-2.08.74l-.46-.8c.64-.41,1.62-.9,2.73-.9,1.68,0,2.4,1.13,2.4,2.84v4.26h-.96l-.1-.83h-.04c-.66.55-1.44.99-2.29.99-1.16,0-2.03-.71-2.03-1.96Zm4.26.11v-1.94c-2.33.28-3.12.85-3.12,1.75,0,.79.54,1.11,1.22,1.11s1.22-.32,1.9-.92Z"/><path d="m14.78,35.93l.57-.76c.6.48,1.22.82,2.05.82.92,0,1.36-.48,1.36-1.08,0-.71-.82-1.02-1.58-1.31-.97-.36-2.03-.83-2.03-2,0-1.1.89-1.96,2.4-1.96.85,0,1.61.36,2.14.78l-.56.75c-.47-.36-.96-.61-1.57-.61-.88,0-1.29.46-1.29.99,0,.66.71.9,1.49,1.2,1.01.38,2.12.79,2.12,2.1,0,1.12-.89,2.05-2.52,2.05-.98,0-1.92-.41-2.59-.96Z"/><path d="m21.85,34.58v-3.83h-1.03v-.88l1.08-.06.14-1.95h.97v1.95h1.87v.94h-1.87v3.86c0,.85.27,1.34,1.07,1.34.24,0,.56-.09.79-.18l.23.87c-.4.13-.85.25-1.27.25-1.48,0-1.98-.93-1.98-2.31Z"/><path d="m31.6,27.37h1.31l3.17,9.35h-1.25l-.89-2.85h-3.41l-.9,2.85h-1.2l3.17-9.35Zm-.78,5.56h2.83l-.45-1.43c-.34-1.06-.64-2.08-.94-3.16h-.05c-.29,1.1-.6,2.1-.93,3.16l-.46,1.43Z"/><path d="m36.64,35.93l.57-.76c.6.48,1.22.82,2.05.82.92,0,1.36-.48,1.36-1.08,0-.71-.82-1.02-1.58-1.31-.97-.36-2.03-.83-2.03-2,0-1.1.89-1.96,2.4-1.96.85,0,1.61.36,2.14.78l-.56.75c-.47-.36-.96-.61-1.57-.61-.88,0-1.29.46-1.29.99,0,.66.71.9,1.49,1.2,1.01.38,2.11.79,2.11,2.1,0,1.12-.89,2.05-2.52,2.05-.98,0-1.92-.41-2.59-.96Z"/><path d="m43.32,27.6c0-.45.32-.75.78-.75s.78.31.78.75c0,.47-.32.78-.78.78s-.78-.31-.78-.78Zm.19,2.2h1.16v6.92h-1.16v-6.92Z"/><path d="m46.71,34.92c0-1.5,1.31-2.26,4.26-2.59,0-.89-.29-1.75-1.43-1.75-.8,0-1.53.37-2.08.74l-.46-.8c.64-.41,1.62-.9,2.73-.9,1.68,0,2.4,1.13,2.4,2.84v4.26h-.96l-.1-.83h-.04c-.66.55-1.44.99-2.29.99-1.16,0-2.03-.71-2.03-1.96Zm4.26.11v-1.94c-2.33.28-3.12.85-3.12,1.75,0,.79.54,1.11,1.22,1.11s1.22-.32,1.9-.92Z"/><path d="m54.45,29.8h.96l.1.99h.04c.66-.65,1.38-1.17,2.32-1.17,1.45,0,2.11.94,2.11,2.71v4.38h-1.16v-4.23c0-1.3-.4-1.85-1.31-1.85-.71,0-1.2.36-1.9,1.06v5.02h-1.16v-6.92Z"/><path d="m64.91,32.06c0-3.02,1.77-4.85,4.14-4.85,1.13,0,2.03.56,2.56,1.16l-.64.76c-.48-.52-1.11-.89-1.91-.89-1.77,0-2.94,1.45-2.94,3.78s1.12,3.84,2.91,3.84c.89,0,1.57-.4,2.17-1.04l.65.74c-.74.85-1.66,1.34-2.87,1.34-2.32,0-4.06-1.8-4.06-4.83Z"/><path d="m73.08,33.27c0-2.31,1.52-3.64,3.21-3.64s3.21,1.34,3.21,3.64-1.52,3.62-3.21,3.62-3.21-1.33-3.21-3.62Zm5.22,0c0-1.59-.82-2.68-2.01-2.68s-2,1.08-2,2.68.8,2.65,2,2.65,2.01-1.06,2.01-2.65Z"/><path d="m81.45,29.8h.96l.1.99h.04c.66-.65,1.38-1.17,2.32-1.17,1.45,0,2.11.94,2.11,2.71v4.38h-1.16v-4.23c0-1.3-.4-1.85-1.31-1.85-.71,0-1.2.36-1.9,1.06v5.02h-1.16v-6.92Z"/><path d="m88.59,35.93l.57-.76c.6.48,1.22.82,2.05.82.92,0,1.36-.48,1.36-1.08,0-.71-.82-1.02-1.58-1.31-.97-.36-2.03-.83-2.03-2,0-1.1.89-1.96,2.4-1.96.85,0,1.61.36,2.14.78l-.56.75c-.47-.36-.96-.61-1.57-.61-.88,0-1.29.46-1.29.99,0,.66.71.9,1.49,1.2,1.01.38,2.11.79,2.11,2.1,0,1.12-.89,2.05-2.52,2.05-.98,0-1.92-.41-2.59-.96Z"/><path d="m94.93,33.27c0-2.31,1.52-3.64,3.21-3.64s3.21,1.34,3.21,3.64-1.52,3.62-3.21,3.62-3.21-1.33-3.21-3.62Zm5.22,0c0-1.59-.82-2.68-2.01-2.68s-2,1.08-2,2.68.8,2.65,2,2.65,2.01-1.06,2.01-2.65Z"/><path d="m103.3,29.8h.96l.1,1.26h.04c.48-.88,1.18-1.44,1.96-1.44.31,0,.52.04.74.15l-.22,1.02c-.23-.09-.4-.11-.68-.11-.57,0-1.29.41-1.75,1.59v4.45h-1.16v-6.92Z"/><path d="m108.58,34.58v-3.83h-1.03v-.88l1.08-.06.14-1.95h.97v1.95h1.87v.94h-1.87v3.86c0,.85.27,1.34,1.07,1.34.24,0,.56-.09.79-.18l.23.87c-.4.13-.85.25-1.27.25-1.48,0-1.98-.93-1.98-2.31Z"/><path d="m113.11,27.6c0-.45.32-.75.78-.75s.78.31.78.75c0,.47-.32.78-.78.78s-.78-.31-.78-.78Zm.19,2.2h1.16v6.92h-1.16v-6.92Z"/><path d="m116.85,34.18v-4.38h1.16v4.24c0,1.29.38,1.83,1.3,1.83.71,0,1.21-.34,1.87-1.17v-4.91h1.16v6.92h-.97l-.09-1.08h-.04c-.65.75-1.34,1.25-2.29,1.25-1.45,0-2.1-.94-2.1-2.7Z"/><path d="m124.8,29.8h.96l.1,1.01h.04c.6-.66,1.32-1.19,2.15-1.19,1.06,0,1.63.51,1.91,1.33.71-.78,1.44-1.33,2.28-1.33,1.43,0,2.1.94,2.1,2.71v4.38h-1.16v-4.23c0-1.3-.41-1.85-1.29-1.85-.54,0-1.1.34-1.75,1.06v5.02h-1.16v-4.23c0-1.3-.41-1.85-1.29-1.85-.52,0-1.11.34-1.75,1.06v5.02h-1.16v-6.92Z"/><path d="m139.18,33.27c0-2.31,1.52-3.64,3.21-3.64s3.21,1.34,3.21,3.64-1.52,3.62-3.21,3.62-3.21-1.33-3.21-3.62Zm5.22,0c0-1.59-.82-2.68-2.01-2.68s-2,1.08-2,2.68.8,2.65,2,2.65,2.01-1.06,2.01-2.65Z"/><path d="m147.74,30.74h-.94v-.88l.94-.06v-1.11c0-1.4.64-2.28,2.01-2.28.42,0,.84.09,1.16.23l-.25.88c-.25-.11-.53-.18-.78-.18-.66,0-.98.47-.98,1.36v1.1h1.46v.94h-1.46v5.98h-1.16v-5.98Z"/><path d="m154.08,35.41l.84-.6c.42.74.94,1.04,1.62,1.04,1.01,0,1.5-.57,1.5-1.99v-6.5h1.17v6.61c0,1.61-.74,2.9-2.56,2.9-1.18,0-2.03-.51-2.57-1.48Z"/><path d="m161.33,34.92c0-1.5,1.31-2.26,4.26-2.59,0-.89-.29-1.75-1.43-1.75-.8,0-1.53.37-2.08.74l-.46-.8c.64-.41,1.62-.9,2.73-.9,1.68,0,2.4,1.13,2.4,2.84v4.26h-.96l-.1-.83h-.04c-.66.55-1.44.99-2.29.99-1.16,0-2.03-.71-2.03-1.96Zm4.26.11v-1.94c-2.33.28-3.12.85-3.12,1.75,0,.79.54,1.11,1.22,1.11s1.22-.32,1.9-.92Z"/><path d="m169.07,29.8h.96l.1.79h.04c.62-.51,1.4-.97,2.2-.97,1.78,0,2.75,1.4,2.75,3.53,0,2.37-1.41,3.73-3.01,3.73-.62,0-1.29-.29-1.91-.8l.03,1.21v2.34h-1.16v-9.84Zm4.84,3.36c0-1.53-.51-2.56-1.82-2.56-.59,0-1.19.33-1.86.96v3.63c.62.54,1.24.73,1.69.73,1.15,0,1.99-1.03,1.99-2.75Z"/><path d="m176.67,34.92c0-1.5,1.31-2.26,4.26-2.59,0-.89-.29-1.75-1.43-1.75-.8,0-1.53.37-2.08.74l-.46-.8c.64-.41,1.62-.9,2.73-.9,1.68,0,2.4,1.13,2.4,2.84v4.26h-.96l-.1-.83h-.04c-.66.55-1.44.99-2.29.99-1.16,0-2.03-.71-2.03-1.96Zm4.26.11v-1.94c-2.33.28-3.12.85-3.12,1.75,0,.79.54,1.11,1.22,1.11s1.22-.32,1.9-.92Z"/><path d="m184.41,29.8h.96l.1.99h.04c.66-.65,1.38-1.17,2.32-1.17,1.45,0,2.11.94,2.11,2.71v4.38h-1.16v-4.23c0-1.3-.4-1.85-1.31-1.85-.71,0-1.2.36-1.9,1.06v5.02h-1.16v-6.92Z"/><path d="m191.8,33.27c0-2.24,1.52-3.64,3.12-3.64,1.76,0,2.75,1.27,2.75,3.25,0,.25-.03.5-.05.66h-4.66c.08,1.48.98,2.42,2.29,2.42.68,0,1.22-.2,1.73-.55l.42.76c-.61.4-1.35.71-2.29.71-1.83,0-3.31-1.34-3.31-3.62Zm4.85-.57c0-1.39-.64-2.14-1.72-2.14-.98,0-1.85.79-1.99,2.14h3.71Z"/><path d="m198.73,35.93l.57-.76c.6.48,1.22.82,2.05.82.92,0,1.36-.48,1.36-1.08,0-.71-.82-1.02-1.58-1.31-.97-.36-2.03-.83-2.03-2,0-1.1.89-1.96,2.4-1.96.85,0,1.61.36,2.14.78l-.56.75c-.47-.36-.96-.61-1.57-.61-.88,0-1.29.46-1.29.99,0,.66.71.9,1.49,1.2,1.01.38,2.12.79,2.12,2.1,0,1.12-.89,2.05-2.52,2.05-.98,0-1.92-.41-2.59-.96Z"/><path d="m205.08,33.27c0-2.24,1.52-3.64,3.12-3.64,1.76,0,2.75,1.27,2.75,3.25,0,.25-.03.5-.05.66h-4.66c.08,1.48.98,2.42,2.29,2.42.68,0,1.22-.2,1.73-.55l.42.76c-.61.4-1.35.71-2.29.71-1.83,0-3.31-1.34-3.31-3.62Zm4.85-.57c0-1.39-.64-2.14-1.72-2.14-.98,0-1.85.79-1.99,2.14h3.71Z"/><path d="m215.2,35.5l.71-.8c.66.7,1.6,1.16,2.57,1.16,1.22,0,1.96-.61,1.96-1.53s-.68-1.26-1.55-1.66l-1.35-.59c-.87-.37-1.9-1.03-1.9-2.4,0-1.44,1.25-2.48,2.94-2.48,1.11,0,2.09.47,2.75,1.16l-.62.75c-.57-.54-1.26-.88-2.13-.88-1.06,0-1.75.53-1.75,1.38,0,.9.82,1.25,1.54,1.55l1.34.57c1.08.47,1.92,1.11,1.92,2.5,0,1.48-1.22,2.65-3.17,2.65-1.33,0-2.46-.54-3.27-1.39Z"/><path d="m223.71,34.58v-3.83h-1.03v-.88l1.08-.06.14-1.95h.97v1.95h1.87v.94h-1.87v3.86c0,.85.27,1.34,1.07,1.34.24,0,.56-.09.79-.18l.23.87c-.4.13-.85.25-1.27.25-1.48,0-1.98-.93-1.98-2.31Z"/><path d="m228.34,34.18v-4.38h1.16v4.24c0,1.29.38,1.83,1.3,1.83.71,0,1.21-.34,1.87-1.17v-4.91h1.16v6.92h-.97l-.09-1.08h-.04c-.65.75-1.34,1.25-2.29,1.25-1.45,0-2.1-.94-2.1-2.7Z"/><path d="m235.8,33.27c0-2.24,1.41-3.64,2.99-3.64.82,0,1.34.31,1.95.82l-.05-1.2v-2.66h1.15v10.14h-.94l-.1-.82h-.04c-.55.54-1.27.98-2.1.98-1.73,0-2.85-1.31-2.85-3.62Zm4.89,1.69v-3.63c-.6-.52-1.12-.73-1.69-.73-1.12,0-2,1.07-2,2.65,0,1.67.69,2.66,1.91,2.66.64,0,1.2-.32,1.78-.96Z"/><path d="m244.13,27.6c0-.45.32-.75.78-.75s.78.31.78.75c0,.47-.32.78-.78.78s-.78-.31-.78-.78Zm.19,2.2h1.16v6.92h-1.16v-6.92Z"/><path d="m247.43,33.27c0-2.24,1.52-3.64,3.12-3.64,1.76,0,2.75,1.27,2.75,3.25,0,.25-.03.5-.05.66h-4.66c.08,1.48.98,2.42,2.29,2.42.68,0,1.22-.2,1.73-.55l.42.76c-.61.4-1.35.71-2.29.71-1.83,0-3.31-1.34-3.31-3.62Zm4.85-.57c0-1.39-.64-2.14-1.72-2.14-.98,0-1.85.79-1.99,2.14h3.71Z"/><path d="m254.36,35.93l.57-.76c.6.48,1.22.82,2.05.82.92,0,1.36-.48,1.36-1.08,0-.71-.82-1.02-1.58-1.31-.97-.36-2.03-.83-2.03-2,0-1.1.89-1.96,2.4-1.96.85,0,1.61.36,2.14.78l-.56.75c-.47-.36-.96-.61-1.57-.61-.88,0-1.29.46-1.29.99,0,.66.71.9,1.49,1.2,1.01.38,2.11.79,2.11,2.1,0,1.12-.89,2.05-2.52,2.05-.98,0-1.92-.41-2.59-.96Z"/></g></svg>