<?xml version="1.0" encoding="UTF-8"?><svg id="_レイヤー_2" xmlns="http://www.w3.org/2000/svg" viewBox="0 0 397.24 20.24"><defs><style>.cls-1{fill:#be4682;}</style></defs><g id="_レイヤー_1-2"><path class="cls-1" d="m0,2.63v-.97h10.45l.15,3.63h-1.45l-.44-2.53h-4.21c-.01.87-.02,1.74-.03,2.6,0,.86-.01,1.68-.01,2.44h2.68l.27-1.8h1.08v4.69h-1.08l-.25-1.78h-2.7c0,1,0,1.93.01,2.81,0,.88.02,1.75.03,2.6h4.63l.44-2.53h1.45l-.15,3.63H0v-.97l1.74-.19c.03-.86.04-1.73.04-2.61v-6.17c0-.88-.01-1.76-.04-2.64l-1.74-.19Z"/><path class="cls-1" d="m20.26,15.66c-.55,0-1-.14-1.35-.42s-.58-.66-.71-1.14c-.51.53-.97.92-1.39,1.19-.41.27-.95.4-1.62.4-.77,0-1.43-.23-1.96-.67-.53-.45-.8-1.1-.8-1.94,0-.44.1-.85.31-1.23.21-.38.58-.74,1.11-1.07.53-.33,1.3-.66,2.29-.97.28-.1.59-.19.93-.29.35-.1.7-.19,1.06-.29v-.58c0-.97-.13-1.62-.4-1.96-.27-.34-.74-.51-1.42-.51-.12,0-.26,0-.4.02-.15.01-.29.03-.45.06l-.25,1.14c-.06.5-.2.86-.44,1.1s-.53.35-.87.35c-.66,0-1.05-.31-1.16-.93.12-.83.57-1.49,1.34-1.99.77-.5,1.78-.75,3.04-.75s2.08.29,2.63.86c.55.57.83,1.54.83,2.89v4.52c0,.62.2.93.6.93.26,0,.5-.15.73-.46l.48.42c-.25.47-.54.81-.88,1.01s-.76.3-1.25.3Zm-5.39-3.01c0,.54.14.93.43,1.17.28.24.63.36,1.05.36.23,0,.47-.06.71-.17.24-.11.6-.34,1.1-.68v-3.28c-.29.1-.56.19-.82.27-.26.08-.47.16-.65.23-.69.28-1.17.59-1.42.95-.26.36-.38.74-.38,1.14Z"/><path class="cls-1" d="m26.9,15.7c-.64,0-1.22-.07-1.75-.22-.53-.15-1.06-.36-1.59-.65l-.02-2.41h1.39l.37,1.93c.5.21,1.04.31,1.62.31.71,0,1.23-.12,1.58-.37s.52-.59.52-1.04c0-.39-.14-.7-.41-.94-.28-.24-.75-.47-1.41-.7l-1.04-.35c-.77-.25-1.39-.61-1.84-1.1-.45-.48-.67-1.09-.67-1.83,0-.58.15-1.11.46-1.59s.75-.86,1.34-1.14c.59-.28,1.3-.43,2.15-.43.59,0,1.14.07,1.63.22.49.15.98.36,1.46.63l-.1,2.18h-1.37l-.37-1.74c-.39-.17-.82-.25-1.29-.25-.55,0-.98.12-1.29.35-.3.24-.46.55-.46.95,0,.37.13.67.38.9s.74.46,1.44.69l.83.25c1.01.35,1.73.77,2.16,1.29.43.51.64,1.13.64,1.85,0,.93-.38,1.69-1.13,2.29-.75.6-1.83.9-3.23.9Z"/><path class="cls-1" d="m36.27,15.7c-.83,0-1.48-.21-1.95-.62-.47-.41-.71-1.08-.71-1.99,0-.32,0-.62.01-.9,0-.28.01-.63.01-1.03v-4.42h-1.53v-1.08l1.68-.21.79-2.84h1.68l-.08,2.86h2.49v1.27h-2.51v6.12c0,.51.1.89.3,1.12.2.24.47.35.8.35.37,0,.79-.17,1.27-.52l.5.52c-.26.43-.62.76-1.08,1.01-.46.24-1.01.36-1.66.36Z"/><path class="cls-1" d="m43.76,15.41v-.97l1.7-.25,4.33-12.61h1.7l4.33,12.71,1.41.17v.95h-5.99v-.95l1.83-.23-1-3.07h-4.52l-1,3.01,1.8.27v.97h-4.6Zm6.08-11.08l-1.91,5.75h3.8l-1.89-5.75Z"/><path class="cls-1" d="m61.88,15.7c-.64,0-1.22-.07-1.75-.22-.53-.15-1.06-.36-1.59-.65l-.02-2.41h1.39l.37,1.93c.5.21,1.04.31,1.62.31.71,0,1.23-.12,1.58-.37s.52-.59.52-1.04c0-.39-.14-.7-.41-.94-.28-.24-.75-.47-1.41-.7l-1.04-.35c-.77-.25-1.39-.61-1.84-1.1-.45-.48-.67-1.09-.67-1.83,0-.58.15-1.11.46-1.59s.75-.86,1.34-1.14c.59-.28,1.3-.43,2.15-.43.59,0,1.14.07,1.63.22.49.15.98.36,1.46.63l-.1,2.18h-1.37l-.37-1.74c-.39-.17-.82-.25-1.29-.25-.55,0-.98.12-1.29.35-.3.24-.46.55-.46.95,0,.37.13.67.38.9s.74.46,1.44.69l.83.25c1.01.35,1.73.77,2.16,1.29.43.51.64,1.13.64,1.85,0,.93-.38,1.69-1.13,2.29-.75.6-1.83.9-3.23.9Z"/><path class="cls-1" d="m67.38,15.41v-.85l1.37-.27c.01-.51.02-1.07.02-1.67v-2.54c0-.57,0-1.04-.01-1.42,0-.38-.02-.78-.05-1.19l-1.47-.19v-.79l3.73-1.31.33.21-.06,2.92v4.3c0,.6,0,1.17.02,1.69l1.27.25v.85h-5.14Zm2.61-12.15c-.44,0-.82-.14-1.12-.42-.3-.28-.46-.63-.46-1.06s.15-.8.46-1.08c.3-.28.68-.42,1.12-.42s.81.14,1.11.42c.3.28.45.64.45,1.08s-.15.78-.45,1.06c-.3.28-.67.42-1.11.42Z"/><path class="cls-1" d="m81.64,15.66c-.55,0-1-.14-1.35-.42s-.58-.66-.71-1.14c-.51.53-.97.92-1.39,1.19-.41.27-.95.4-1.62.4-.77,0-1.43-.23-1.96-.67-.53-.45-.8-1.1-.8-1.94,0-.44.1-.85.31-1.23.21-.38.58-.74,1.11-1.07.53-.33,1.3-.66,2.29-.97.28-.1.59-.19.93-.29.35-.1.7-.19,1.06-.29v-.58c0-.97-.13-1.62-.4-1.96-.27-.34-.74-.51-1.42-.51-.12,0-.26,0-.4.02-.15.01-.29.03-.45.06l-.25,1.14c-.06.5-.2.86-.44,1.1s-.53.35-.87.35c-.66,0-1.05-.31-1.16-.93.12-.83.57-1.49,1.34-1.99.77-.5,1.78-.75,3.04-.75s2.08.29,2.63.86c.55.57.83,1.54.83,2.89v4.52c0,.62.2.93.6.93.26,0,.5-.15.73-.46l.48.42c-.25.47-.54.81-.88,1.01s-.76.3-1.25.3Zm-5.39-3.01c0,.54.14.93.43,1.17.28.24.63.36,1.05.36.23,0,.47-.06.71-.17.24-.11.6-.34,1.1-.68v-3.28c-.29.1-.56.19-.82.27-.26.08-.47.16-.65.23-.69.28-1.17.59-1.42.95-.26.36-.38.74-.38,1.14Z"/><path class="cls-1" d="m84.85,15.41v-.85l1.35-.27c.01-.51.02-1.07.02-1.67v-2.67c0-.57,0-1.02-.01-1.36,0-.34-.02-.72-.05-1.13l-1.45-.19v-.79l3.46-1.31.33.21.15,1.6c1.06-1.2,2.24-1.8,3.53-1.8.9,0,1.59.3,2.08.89.49.59.74,1.53.74,2.82v3.75c0,.59,0,1.15.02,1.66l1.27.25v.85h-5.12v-.85l1.33-.27c.01-.51.02-1.06.02-1.65v-3.56c0-.82-.11-1.38-.33-1.69s-.59-.47-1.12-.47c-.73,0-1.51.34-2.32,1.02v4.69c0,.59,0,1.15.02,1.68l1.22.25v.85h-5.12Z"/><path class="cls-1" d="m109.41,15.76c-1.36,0-2.57-.29-3.64-.86-1.07-.57-1.92-1.4-2.53-2.49-.62-1.09-.92-2.38-.92-3.89s.32-2.8.96-3.88,1.51-1.9,2.59-2.48c1.08-.57,2.28-.86,3.6-.86.68,0,1.35.08,2.03.23.68.15,1.35.42,2.01.79l.08,3.11h-1.43l-.5-2.57c-.3-.17-.61-.28-.91-.35s-.61-.1-.91-.1c-.83,0-1.59.23-2.29.67s-1.26,1.13-1.68,2.03c-.42.91-.63,2.05-.63,3.43s.2,2.51.59,3.41c.39.91.93,1.58,1.61,2.02.68.44,1.44.66,2.28.66.71,0,1.42-.16,2.14-.48l.5-2.53h1.41l-.08,3.09c-.59.33-1.25.59-1.97.77-.72.18-1.49.27-2.3.27Z"/><path class="cls-1" d="m120.23,15.7c-.94,0-1.79-.21-2.54-.62-.75-.41-1.35-1.02-1.79-1.8-.44-.79-.66-1.73-.66-2.82s.23-2.05.69-2.84c.46-.79,1.07-1.39,1.84-1.8.76-.42,1.58-.62,2.47-.62s1.71.21,2.47.62c.76.41,1.38,1.01,1.85,1.79s.71,1.73.71,2.85-.23,2.05-.67,2.83-1.05,1.38-1.8,1.79c-.75.42-1.6.62-2.54.62Zm0-1.02c.75,0,1.32-.35,1.71-1.04.39-.69.59-1.75.59-3.17,0-2.85-.77-4.27-2.3-4.27s-2.28,1.42-2.28,4.27c0,1.42.19,2.48.58,3.17.39.69.95,1.04,1.7,1.04Z"/><path class="cls-1" d="m126.39,15.41v-.85l1.35-.27c.01-.51.02-1.07.02-1.67v-2.67c0-.57,0-1.02-.01-1.36,0-.34-.02-.72-.05-1.13l-1.45-.19v-.79l3.46-1.31.33.21.15,1.6c1.06-1.2,2.24-1.8,3.53-1.8.9,0,1.59.3,2.08.89.49.59.74,1.53.74,2.82v3.75c0,.59,0,1.15.02,1.66l1.27.25v.85h-5.12v-.85l1.33-.27c.01-.51.02-1.06.02-1.65v-3.56c0-.82-.11-1.38-.33-1.69s-.59-.47-1.12-.47c-.73,0-1.51.34-2.32,1.02v4.69c0,.59,0,1.15.02,1.68l1.22.25v.85h-5.12Z"/><path class="cls-1" d="m142.58,15.7c-.64,0-1.22-.07-1.75-.22-.53-.15-1.06-.36-1.59-.65l-.02-2.41h1.39l.37,1.93c.5.21,1.04.31,1.62.31.71,0,1.23-.12,1.58-.37s.52-.59.52-1.04c0-.39-.14-.7-.41-.94-.28-.24-.75-.47-1.41-.7l-1.04-.35c-.77-.25-1.39-.61-1.84-1.1-.45-.48-.67-1.09-.67-1.83,0-.58.15-1.11.46-1.59s.75-.86,1.34-1.14c.59-.28,1.3-.43,2.15-.43.59,0,1.14.07,1.63.22.49.15.98.36,1.46.63l-.1,2.18h-1.37l-.37-1.74c-.39-.17-.82-.25-1.29-.25-.55,0-.98.12-1.29.35-.3.24-.46.55-.46.95,0,.37.13.67.38.9s.74.46,1.44.69l.83.25c1.01.35,1.73.77,2.16,1.29.43.51.64,1.13.64,1.85,0,.93-.38,1.69-1.13,2.29-.75.6-1.83.9-3.23.9Z"/><path class="cls-1" d="m153.3,15.7c-.94,0-1.79-.21-2.54-.62-.75-.41-1.35-1.02-1.79-1.8-.44-.79-.66-1.73-.66-2.82s.23-2.05.69-2.84c.46-.79,1.07-1.39,1.84-1.8.76-.42,1.58-.62,2.47-.62s1.71.21,2.47.62c.76.41,1.38,1.01,1.85,1.79s.71,1.73.71,2.85-.23,2.05-.67,2.83-1.05,1.38-1.8,1.79c-.75.42-1.6.62-2.54.62Zm0-1.02c.75,0,1.32-.35,1.71-1.04.39-.69.59-1.75.59-3.17,0-2.85-.77-4.27-2.3-4.27s-2.28,1.42-2.28,4.27c0,1.42.19,2.48.58,3.17.39.69.95,1.04,1.7,1.04Z"/><path class="cls-1" d="m159.49,15.41v-.85l1.33-.25c.01-.53.02-1.09.02-1.69v-2.67c0-.57,0-1.02-.01-1.36,0-.34-.02-.72-.05-1.13l-1.45-.19v-.79l3.46-1.31.33.21.21,2.45c.32-.86.75-1.51,1.29-1.97.54-.46,1.08-.68,1.62-.68.37,0,.72.1,1.03.29.31.19.51.47.61.83-.01.51-.14.91-.37,1.19-.24.28-.56.42-.97.42-.5,0-.97-.25-1.41-.75l-.19-.21c-.73.61-1.26,1.47-1.58,2.57v3.04c0,.59,0,1.14.02,1.65l1.7.33v.85h-5.58Z"/><path class="cls-1" d="m172.89,15.7c-.83,0-1.48-.21-1.95-.62-.47-.41-.71-1.08-.71-1.99,0-.32,0-.62.01-.9,0-.28.01-.63.01-1.03v-4.42h-1.53v-1.08l1.68-.21.79-2.84h1.68l-.08,2.86h2.49v1.27h-2.51v6.12c0,.51.1.89.3,1.12.2.24.47.35.8.35.37,0,.79-.17,1.27-.52l.5.52c-.26.43-.62.76-1.08,1.01-.46.24-1.01.36-1.66.36Z"/><path class="cls-1" d="m176.66,15.41v-.85l1.37-.27c.01-.51.02-1.07.02-1.67v-2.54c0-.57,0-1.04-.01-1.42,0-.38-.02-.78-.05-1.19l-1.47-.19v-.79l3.73-1.31.33.21-.06,2.92v4.3c0,.6,0,1.17.02,1.69l1.27.25v.85h-5.14Zm2.61-12.15c-.44,0-.82-.14-1.12-.42-.3-.28-.46-.63-.46-1.06s.15-.8.46-1.08c.3-.28.68-.42,1.12-.42s.81.14,1.11.42c.3.28.45.64.45,1.08s-.15.78-.45,1.06c-.3.28-.67.42-1.11.42Z"/><path class="cls-1" d="m190.17,15.6l-.17-1.83c-1.01,1.29-2.19,1.93-3.53,1.93-.86,0-1.55-.28-2.06-.84s-.77-1.52-.76-2.89l.08-5.12-1.35-.29v-.81l3.63-.44.25.23-.1,2.9v3.44c0,.77.12,1.32.36,1.63.24.31.59.47,1.05.47.39,0,.78-.11,1.19-.33.41-.22.8-.5,1.17-.85l.06-5.95-1.31-.29v-.77l3.55-.48.27.23-.06,2.9v5.85l1.27.27v.85l-3.55.19Z"/><path class="cls-1" d="m195.05,15.41v-.85l1.35-.27c.01-.51.02-1.07.02-1.67v-2.67c0-.57,0-1.02-.01-1.36,0-.34-.02-.72-.05-1.13l-1.45-.19v-.79l3.46-1.31.33.21.15,1.62c.5-.57,1.04-1.01,1.63-1.34.59-.32,1.2-.49,1.84-.49,1.34,0,2.21.63,2.59,1.89.55-.66,1.13-1.14,1.72-1.44.59-.3,1.21-.45,1.85-.45.94,0,1.65.29,2.12.87.47.58.71,1.51.71,2.78v3.81c0,.59,0,1.14.02,1.67l1.27.25v.85h-5.06v-.85l1.29-.27c.01-.51.02-1.06.02-1.65v-3.49c0-.87-.11-1.46-.34-1.76s-.6-.46-1.13-.46c-.73,0-1.49.35-2.28,1.06.01.14.02.28.03.44,0,.15.01.31.01.48v3.74c0,.59,0,1.14.02,1.67l1.24.25v.85h-5.08v-.85l1.33-.27c.01-.51.02-1.06.02-1.65v-3.45c0-.84-.11-1.43-.32-1.76-.21-.33-.59-.5-1.13-.5-.39,0-.77.09-1.15.28s-.75.44-1.11.76v4.67c0,.59,0,1.15.02,1.68l1.22.25v.85h-5.12Z"/><path class="cls-1" d="m223.51,15.7c-.94,0-1.79-.21-2.54-.62-.75-.41-1.35-1.02-1.79-1.8-.44-.79-.66-1.73-.66-2.82s.23-2.05.69-2.84c.46-.79,1.07-1.39,1.84-1.8.76-.42,1.58-.62,2.47-.62s1.71.21,2.47.62c.76.41,1.38,1.01,1.85,1.79s.71,1.73.71,2.85-.23,2.05-.67,2.83-1.05,1.38-1.8,1.79c-.75.42-1.6.62-2.54.62Zm0-1.02c.75,0,1.32-.35,1.71-1.04.39-.69.59-1.75.59-3.17,0-2.85-.77-4.27-2.3-4.27s-2.28,1.42-2.28,4.27c0,1.42.19,2.48.58,3.17.39.69.95,1.04,1.7,1.04Z"/><path class="cls-1" d="m229.58,15.41v-.85l1.39-.27c.01-.54.02-1.08.03-1.62,0-.54.01-1.08.01-1.62v-4.31h-1.54v-1.08l1.6-.21c.11-1.02.28-1.85.51-2.48.23-.63.58-1.19,1.07-1.67.47-.47.98-.81,1.54-1.01.56-.2,1.1-.3,1.63-.3s1.02.1,1.44.29c.42.19.69.53.8,1.02-.01.32-.14.59-.38.81-.24.22-.57.33-.99.33-.59,0-1.15-.35-1.68-1.04l-.37-.37s-.09.07-.15.12c-.37.37-.64.9-.81,1.58-.17.68-.23,1.59-.21,2.74h2.55v1.27h-2.51v4.31c0,.53,0,1.05.01,1.59,0,.53.02,1.07.03,1.61l1.74.31v.85h-5.72Z"/><path class="cls-1" d="m241.82,2.63v-.97h6.47v.97l-1.74.19c-.01.84-.02,1.7-.03,2.56,0,.86-.01,1.73-.01,2.6v2.72c0,1.33-.04,2.42-.12,3.29-.08.86-.24,1.58-.46,2.14-.22.56-.55,1.05-.97,1.48-.86.86-1.91,1.29-3.15,1.29-.47,0-.9-.09-1.3-.26s-.67-.47-.84-.9c.04-.43.2-.75.47-.95.27-.21.6-.31.98-.31.32,0,.61.07.87.21s.55.36.85.66l.46.48c.25-.3.42-.68.51-1.14.09-.46.13-1.02.13-1.7,0-.4,0-.9-.01-1.48s-.02-1.34-.04-2.26c-.02-.92-.04-2.06-.05-3.42-.01-1.36-.03-3.02-.06-4.97l-1.95-.21Z"/><path class="cls-1" d="m256.96,15.66c-.55,0-1-.14-1.35-.42s-.58-.66-.71-1.14c-.51.53-.97.92-1.39,1.19-.41.27-.95.4-1.62.4-.77,0-1.43-.23-1.96-.67-.53-.45-.8-1.1-.8-1.94,0-.44.1-.85.31-1.23.21-.38.58-.74,1.11-1.07.53-.33,1.3-.66,2.29-.97.28-.1.59-.19.93-.29.35-.1.7-.19,1.06-.29v-.58c0-.97-.13-1.62-.4-1.96-.27-.34-.74-.51-1.42-.51-.12,0-.26,0-.4.02-.15.01-.29.03-.45.06l-.25,1.14c-.06.5-.2.86-.44,1.1s-.53.35-.87.35c-.66,0-1.05-.31-1.16-.93.12-.83.57-1.49,1.34-1.99.77-.5,1.78-.75,3.04-.75s2.08.29,2.63.86c.55.57.83,1.54.83,2.89v4.52c0,.62.2.93.6.93.26,0,.5-.15.73-.46l.48.42c-.25.47-.54.81-.88,1.01s-.76.3-1.25.3Zm-5.39-3.01c0,.54.14.93.43,1.17.28.24.63.36,1.05.36.23,0,.47-.06.71-.17.24-.11.6-.34,1.1-.68v-3.28c-.29.1-.56.19-.82.27-.26.08-.47.16-.65.23-.69.28-1.17.59-1.42.95-.26.36-.38.74-.38,1.14Z"/><path class="cls-1" d="m259.42,20.24v-.85l1.41-.27c.01-.61.02-1.19.03-1.75,0-.56.01-1.1.01-1.63v-5.79c0-.57,0-1.02-.01-1.36,0-.34-.02-.72-.05-1.13l-1.45-.19v-.79l3.44-1.31.33.21.1,1.27c.94-.98,1.98-1.47,3.11-1.47.75,0,1.42.2,2.03.61.61.41,1.09,1,1.44,1.77.35.77.53,1.71.53,2.82s-.2,2.04-.59,2.83c-.39.79-.92,1.41-1.57,1.84-.65.43-1.38.64-2.18.64-.51,0-.99-.1-1.43-.29s-.86-.5-1.27-.93v1.24c0,.51,0,1.05.01,1.61s.02,1.14.03,1.75l1.62.31v.85h-5.56Zm5.95-13.59c-.32,0-.64.08-.96.25s-.67.39-1.03.66v5.87c.58.54,1.2.81,1.85.81.69,0,1.28-.3,1.75-.9.48-.6.72-1.54.72-2.83s-.21-2.23-.64-2.88-.99-.98-1.68-.98Z"/><path class="cls-1" d="m279.6,15.66c-.55,0-1-.14-1.35-.42s-.58-.66-.71-1.14c-.51.53-.97.92-1.39,1.19-.41.27-.95.4-1.62.4-.77,0-1.43-.23-1.96-.67-.53-.45-.8-1.1-.8-1.94,0-.44.1-.85.31-1.23.21-.38.58-.74,1.11-1.07.53-.33,1.3-.66,2.29-.97.28-.1.59-.19.93-.29.35-.1.7-.19,1.06-.29v-.58c0-.97-.13-1.62-.4-1.96-.27-.34-.74-.51-1.42-.51-.12,0-.26,0-.4.02-.15.01-.29.03-.45.06l-.25,1.14c-.06.5-.2.86-.44,1.1s-.53.35-.87.35c-.66,0-1.05-.31-1.16-.93.12-.83.57-1.49,1.34-1.99.77-.5,1.78-.75,3.04-.75s2.08.29,2.63.86c.55.57.83,1.54.83,2.89v4.52c0,.62.2.93.6.93.26,0,.5-.15.73-.46l.48.42c-.25.47-.54.81-.88,1.01s-.76.3-1.25.3Zm-5.39-3.01c0,.54.14.93.43,1.17.28.24.63.36,1.05.36.23,0,.47-.06.71-.17.24-.11.6-.34,1.1-.68v-3.28c-.29.1-.56.19-.82.27-.26.08-.47.16-.65.23-.69.28-1.17.59-1.42.95-.26.36-.38.74-.38,1.14Z"/><path class="cls-1" d="m282.81,15.41v-.85l1.35-.27c.01-.51.02-1.07.02-1.67v-2.67c0-.57,0-1.02-.01-1.36,0-.34-.02-.72-.05-1.13l-1.45-.19v-.79l3.46-1.31.33.21.15,1.6c1.06-1.2,2.24-1.8,3.53-1.8.9,0,1.59.3,2.08.89.49.59.74,1.53.74,2.82v3.75c0,.59,0,1.15.02,1.66l1.27.25v.85h-5.12v-.85l1.33-.27c.01-.51.02-1.06.02-1.65v-3.56c0-.82-.11-1.38-.33-1.69s-.59-.47-1.12-.47c-.73,0-1.51.34-2.32,1.02v4.69c0,.59,0,1.15.02,1.68l1.22.25v.85h-5.12Z"/><path class="cls-1" d="m300.06,15.7c-.97,0-1.82-.21-2.55-.62-.73-.41-1.31-1.01-1.72-1.79s-.62-1.71-.62-2.79.24-2.06.72-2.85c.48-.79,1.1-1.4,1.87-1.83.77-.42,1.59-.63,2.46-.63.82,0,1.53.17,2.14.52.61.35,1.08.83,1.42,1.45.34.62.51,1.35.51,2.2,0,.44-.04.82-.12,1.14h-6.35c.06,1.19.37,2.08.94,2.68.57.59,1.3.89,2.17.89.61,0,1.12-.12,1.55-.36.42-.24.81-.56,1.15-.94l.6.54c-.4.76-.95,1.35-1.65,1.77-.7.42-1.53.63-2.5.63Zm0-9.52c-.33,0-.66.11-.99.32-.33.21-.6.56-.83,1.05-.23.48-.37,1.14-.43,1.97h2.84c.5,0,.83-.1,1-.31.17-.21.25-.5.25-.87,0-.64-.18-1.15-.54-1.56-.36-.4-.8-.6-1.31-.6Z"/><path class="cls-1" d="m309.28,15.7c-.64,0-1.22-.07-1.75-.22-.53-.15-1.06-.36-1.59-.65l-.02-2.41h1.39l.37,1.93c.5.21,1.04.31,1.62.31.71,0,1.23-.12,1.58-.37s.52-.59.52-1.04c0-.39-.14-.7-.41-.94-.28-.24-.75-.47-1.41-.7l-1.04-.35c-.77-.25-1.39-.61-1.84-1.1-.45-.48-.67-1.09-.67-1.83,0-.58.15-1.11.46-1.59s.75-.86,1.34-1.14c.59-.28,1.3-.43,2.15-.43.59,0,1.14.07,1.63.22.49.15.98.36,1.46.63l-.1,2.18h-1.37l-.37-1.74c-.39-.17-.82-.25-1.29-.25-.55,0-.98.12-1.29.35-.3.24-.46.55-.46.95,0,.37.13.67.38.9s.74.46,1.44.69l.83.25c1.01.35,1.73.77,2.16,1.29.43.51.64,1.13.64,1.85,0,.93-.38,1.69-1.13,2.29-.75.6-1.83.9-3.23.9Z"/><path class="cls-1" d="m319.91,15.7c-.97,0-1.82-.21-2.55-.62-.73-.41-1.31-1.01-1.72-1.79s-.62-1.71-.62-2.79.24-2.06.72-2.85c.48-.79,1.1-1.4,1.87-1.83.77-.42,1.59-.63,2.46-.63.82,0,1.53.17,2.14.52.61.35,1.08.83,1.42,1.45.34.62.51,1.35.51,2.2,0,.44-.04.82-.12,1.14h-6.35c.06,1.19.37,2.08.94,2.68.57.59,1.3.89,2.17.89.61,0,1.12-.12,1.55-.36.42-.24.81-.56,1.15-.94l.6.54c-.4.76-.95,1.35-1.65,1.77-.7.42-1.53.63-2.5.63Zm0-9.52c-.33,0-.66.11-.99.32-.33.21-.6.56-.83,1.05-.23.48-.37,1.14-.43,1.97h2.84c.5,0,.83-.1,1-.31.17-.21.25-.5.25-.87,0-.64-.18-1.15-.54-1.56-.36-.4-.8-.6-1.31-.6Z"/><path class="cls-1" d="m334.6,15.76c-.77,0-1.54-.1-2.3-.29-.76-.19-1.41-.46-1.95-.81l.12-2.99h1.6l.42,2.51c.32.14.64.25.97.32.33.08.71.11,1.12.11.86,0,1.53-.2,2.02-.61.49-.41.74-.95.74-1.63,0-.61-.17-1.09-.52-1.43-.35-.35-.9-.67-1.66-.97l-.85-.35c-1.13-.48-2.04-1.06-2.71-1.74-.67-.68-1.01-1.56-1.01-2.65,0-.82.21-1.52.62-2.1.41-.59.99-1.04,1.73-1.35.74-.31,1.59-.47,2.56-.47.72,0,1.39.1,2.01.29.62.19,1.17.46,1.64.79l-.15,2.8h-1.58l-.41-2.41c-.48-.22-1-.33-1.56-.33-.69,0-1.28.18-1.76.55s-.73.89-.73,1.57c0,.59.19,1.08.56,1.45s.9.7,1.58.98l.89.37c1.35.57,2.32,1.18,2.89,1.83.57.65.86,1.49.86,2.51,0,1.22-.46,2.2-1.38,2.95-.92.75-2.18,1.12-3.79,1.12Z"/><path class="cls-1" d="m344.68,15.7c-.83,0-1.48-.21-1.95-.62-.47-.41-.71-1.08-.71-1.99,0-.32,0-.62.01-.9,0-.28.01-.63.01-1.03v-4.42h-1.53v-1.08l1.68-.21.79-2.84h1.68l-.08,2.86h2.49v1.27h-2.51v6.12c0,.51.1.89.3,1.12.2.24.47.35.8.35.37,0,.79-.17,1.27-.52l.5.52c-.26.43-.62.76-1.08,1.01-.46.24-1.01.36-1.66.36Z"/><path class="cls-1" d="m355.93,15.6l-.17-1.83c-1.01,1.29-2.19,1.93-3.53,1.93-.86,0-1.55-.28-2.06-.84s-.77-1.52-.76-2.89l.08-5.12-1.35-.29v-.81l3.63-.44.25.23-.1,2.9v3.44c0,.77.12,1.32.36,1.63.24.31.59.47,1.05.47.39,0,.78-.11,1.19-.33.41-.22.8-.5,1.17-.85l.06-5.95-1.31-.29v-.77l3.55-.48.27.23-.06,2.9v5.85l1.27.27v.85l-3.55.19Z"/><path class="cls-1" d="m367.79,15.64l-.17-1.31c-.39.44-.82.78-1.29,1.02-.47.23-1.01.35-1.62.35-.82,0-1.54-.21-2.17-.62-.63-.41-1.12-1.01-1.48-1.78-.36-.77-.54-1.69-.54-2.76s.2-2.04.61-2.84c.41-.8.95-1.42,1.64-1.86.68-.44,1.43-.65,2.25-.65.53,0,1,.1,1.42.29.42.19.82.51,1.19.95V2.16l-1.62-.21v-.81l3.8-.93.31.19-.08,2.92v11.01l1.35.23v.85l-3.61.23Zm-4.6-5.14c0,1.26.24,2.2.72,2.81.48.62,1.08.92,1.81.92.36,0,.69-.07.99-.22.3-.15.58-.36.84-.63v-5.95c-.61-.53-1.21-.79-1.8-.79-.69,0-1.29.31-1.79.93-.5.62-.76,1.6-.76,2.92Z"/><path class="cls-1" d="m372.64,15.41v-.85l1.37-.27c.01-.51.02-1.07.02-1.67v-2.54c0-.57,0-1.04-.01-1.42,0-.38-.02-.78-.05-1.19l-1.47-.19v-.79l3.73-1.31.33.21-.06,2.92v4.3c0,.6,0,1.17.02,1.69l1.27.25v.85h-5.14Zm2.61-12.15c-.44,0-.82-.14-1.12-.42-.3-.28-.46-.63-.46-1.06s.15-.8.46-1.08c.3-.28.68-.42,1.12-.42s.81.14,1.11.42c.3.28.45.64.45,1.08s-.15.78-.45,1.06c-.3.28-.67.42-1.11.42Z"/><path class="cls-1" d="m383.67,15.7c-.97,0-1.82-.21-2.55-.62-.73-.41-1.31-1.01-1.72-1.79s-.62-1.71-.62-2.79.24-2.06.72-2.85c.48-.79,1.1-1.4,1.87-1.83.77-.42,1.59-.63,2.46-.63.82,0,1.53.17,2.14.52.61.35,1.08.83,1.42,1.45.34.62.51,1.35.51,2.2,0,.44-.04.82-.12,1.14h-6.35c.06,1.19.37,2.08.94,2.68.57.59,1.3.89,2.17.89.61,0,1.12-.12,1.55-.36.42-.24.81-.56,1.15-.94l.6.54c-.4.76-.95,1.35-1.65,1.77-.7.42-1.53.63-2.5.63Zm0-9.52c-.33,0-.66.11-.99.32-.33.21-.6.56-.83,1.05-.23.48-.37,1.14-.43,1.97h2.84c.5,0,.83-.1,1-.31.17-.21.25-.5.25-.87,0-.64-.18-1.15-.54-1.56-.36-.4-.8-.6-1.31-.6Z"/><path class="cls-1" d="m392.89,15.7c-.64,0-1.22-.07-1.75-.22-.53-.15-1.06-.36-1.59-.65l-.02-2.41h1.39l.37,1.93c.5.21,1.04.31,1.62.31.71,0,1.23-.12,1.58-.37s.52-.59.52-1.04c0-.39-.14-.7-.41-.94-.28-.24-.75-.47-1.41-.7l-1.04-.35c-.77-.25-1.39-.61-1.84-1.1-.45-.48-.67-1.09-.67-1.83,0-.58.15-1.11.46-1.59s.75-.86,1.34-1.14c.59-.28,1.3-.43,2.15-.43.59,0,1.14.07,1.63.22.49.15.98.36,1.46.63l-.1,2.18h-1.37l-.37-1.74c-.39-.17-.82-.25-1.29-.25-.55,0-.98.12-1.29.35-.3.24-.46.55-.46.95,0,.37.13.67.38.9s.74.46,1.44.69l.83.25c1.01.35,1.73.77,2.16,1.29.43.51.64,1.13.64,1.85,0,.93-.38,1.69-1.13,2.29-.75.6-1.83.9-3.23.9Z"/></g></svg>