<?xml version="1.0" encoding="utf-8"?>
<!-- Generator: Adobe Illustrator 27.3.1, SVG Export Plug-In . SVG Version: 6.00 Build 0)  -->
<svg version="1.1" id="_レイヤー_2" xmlns="http://www.w3.org/2000/svg" xmlns:xlink="http://www.w3.org/1999/xlink" x="0px"
	 y="0px" viewBox="0 0 38.4 41.6" style="enable-background:new 0 0 38.4 41.6;" xml:space="preserve">
<style type="text/css">
	.st0{fill:none;stroke:#FFFFFF;stroke-linecap:round;stroke-linejoin:round;}
</style>
<g id="_レイヤー_1-2">
	<path class="st0" d="M19.5,28.2c-2.4,0-4.4-2.2-4.6-5.7"/>
	<path class="st0" d="M15,22.5c-0.7-0.1-1.4-0.6-1.8-1.5"/>
	<path class="st0" d="M13.7,18.7c0.4-0.1,1.1,0.1,1.5,0.5"/>
	<path class="st0" d="M13.2,20.9c-0.4-1-0.1-2,0.5-2.3"/>
	<path class="st0" d="M19.5,28.2c2.4,0,4.4-2.2,4.6-5.7"/>
	<path class="st0" d="M24.1,22.5c0.7-0.1,1.4-0.6,1.8-1.5"/>
	<path class="st0" d="M25.4,18.7c-0.4-0.1-1.1,0.1-1.5,0.5"/>
	<path class="st0" d="M25.9,20.9c0.4-1,0.1-2-0.5-2.3"/>
	<path class="st0" d="M22.1,10.7c2.5,0,4.1,2.1,4.1,4.4c0,0.7-0.1,1.4-0.3,2.1"/>
	<path class="st0" d="M13.5,17c-0.3-2.9,1.4-5.7,3.9-6.9c1.1-0.4,2.4-0.3,3.4,0.2"/>
	<path class="st0" d="M15.1,29.2c-2.1,1.3-4.4,2.2-6.7,3.1c0,0,0,0,0,0c-0.7,0.3-1.3,0.9-1.5,1.7l-2.2,7.2"/>
	<path class="st0" d="M16.6,26.8c0.1,0.6-0.1,1.2-0.6,1.7"/>
	<path class="st0" d="M22.8,28.1c1.9,1.8,4.5,2.6,6.9,3.6c0.3,0.1,0.6,0.2,0.9,0.4c0.7,0.3,1.3,1,1.5,1.7l2,7.2"/>
	<path class="st0" d="M19.8,32c-1.9,0-3.8-1-4.7-2.8"/>
	<path class="st0" d="M24.4,29.4C23.5,31,21.8,32,19.8,32"/>
	<path class="st0" d="M13.4,30.1c0.4,2.8,1.3,5.6,2.5,8.1"/>
	<path class="st0" d="M25.7,30.1c-0.4,2.8-1.3,5.5-2.5,8.1"/>
	<path class="st0" d="M22.3,14.8c-0.2,0.8-0.1,1.7,0.4,2.4c0.2,0.3,0.5,0.6,0.8,0.9s0.5,0.7,0.5,1.1"/>
	<path class="st0" d="M21.5,14.5c-0.5,0.2-0.9,0.7-1,1.2s-0.3,1-0.5,1.5c-0.5,1.1-1.7,1.9-2.9,1.9"/>
	<path class="st0" d="M18.8,15.2c-0.5,0-1,0.4-1.3,0.8s-0.6,0.9-1,1.2s-1,0.6-1.5,0.4"/>
	<polyline class="st0" points="35.3,32.4 37.9,32.4 37.9,0.5 0.5,0.5 0.5,32.4 3.1,32.4 	"/>
</g>
</svg>
