<?xml version="1.0" encoding="utf-8"?>
<!-- Generator: Adobe Illustrator 27.3.1, SVG Export Plug-In . SVG Version: 6.00 Build 0)  -->
<svg version="1.1" id="_レイヤー_2" xmlns="http://www.w3.org/2000/svg" xmlns:xlink="http://www.w3.org/1999/xlink" x="0px"
	 y="0px" viewBox="0 0 41.8 41" style="enable-background:new 0 0 41.8 41;" xml:space="preserve">
<style type="text/css">
	.st0{fill:none;stroke:#FFFFFF;stroke-linecap:round;stroke-linejoin:round;}
</style>
<g id="_レイヤー_1-2">
	<path class="st0" d="M30.2,20.1c-1.9,0-3.5-1.8-3.6-4.5"/>
	<path class="st0" d="M30.2,20.1c1.9,0,3.5-1.8,3.6-4.5"/>
	<path class="st0" d="M33.8,15.6c0.6-0.1,1.1-0.5,1.4-1.2"/>
	<path class="st0" d="M35.2,14.4c0.3-0.8,0.1-1.6-0.4-1.8"/>
	<path class="st0" d="M27.9,19c0.1,0.5-0.2,1.2-0.7,1.6c-1.9,1.2-3.2,1.9-5.1,2.7c-0.8,0.3-1.4,1-1.6,1.9l-1.1,5.3"/>
	<path class="st0" d="M32.9,20.3c0.3,0.4,0.8,0.6,1.2,0.9c1.2,0.7,2.8,1.6,4.1,2.1c0,0,0,0,0,0c0.8,0.3,1.4,1,1.6,1.9l1.3,5.3"/>
	<path class="st0" d="M34.8,12.6c-0.2,0-0.3,0-0.6,0.1c0-1.7-0.7-3.4-1.9-4.5c-0.1,0.9-0.6,1.6-1.3,2.2s-1.6,0.8-2.4,0.9
		c-0.5,0-1.1,0-1.5,0.4c-0.2,0.2-0.4,0.6-0.4,0.9c-0.1,1-0.1,1.9-0.1,3.1"/>
	<path class="st0" d="M32.8,5.8c0.6,0.2,1,0.5,1.3,0.9c1.8,2.5,2.6,5.4,2.4,8.4c-0.1,1.3-0.9,2.6-2.2,3.1"/>
	<path class="st0" d="M34.4,21.3c-1.8,0.5-3.4,1.5-4.6,2.8"/>
	<path class="st0" d="M26,21.3c1.7,0.4,3.1,1.3,4.2,2.4"/>
	<path class="st0" d="M29.8,24.1v4l0,2.6"/>
	<path class="st0" d="M24.2,18c0.5-0.1,0.9-0.6,1-1.1s-0.1-1.1-0.2-1.6c-0.3-1.5-0.4-3.1,0-4.6c0.4-1.5,1.2-2.9,2.4-3.8
		s2.9-1.3,4.2-0.8c-0.6,0.2-1.1,0.6-1.4,1.1c-0.3,0.5-0.4,1.1-0.6,1.6c-0.5,1-1.6,1.6-2.7,1.5"/>
	<polyline class="st0" points="41.3,40.5 41.3,33.2 0.7,33.2 0.7,40.5 	"/>
	<polyline class="st0" points="10.4,30.9 10.4,20.9 13.3,18.7 	"/>
	<polyline class="st0" points="7.4,19.9 0.5,19.9 0.5,0.5 29.1,0.5 29.1,3 	"/>
	<line class="st0" x1="20.7" y1="19.9" x2="15.8" y2="19.9"/>
</g>
</svg>
