<?xml version="1.0" encoding="UTF-8"?><svg id="_レイヤー_2" xmlns="http://www.w3.org/2000/svg" viewBox="0 0 38.4 41.31"><defs><style>.cls-1{fill:none;stroke:#666;stroke-linecap:round;stroke-linejoin:round;}</style></defs><g id="_レイヤー_1-2"><polyline class="cls-1" points="14.7 8.13 25.38 8.13 25.38 9.91"/><polyline class="cls-1" points="25.38 23.24 25.38 40.81 .5 40.81 .5 8.13 11.06 8.13"/><path class="cls-1" d="m14.72,8.1v-.43c0-1.04-.84-1.88-1.88-1.88s-1.88.84-1.88,1.88v.43h-4.24v4.63h12.44v-4.63h-4.44Z"/><line class="cls-1" x1="4.6" y1="17.09" x2="5.97" y2="17.09"/><line class="cls-1" x1="9.27" y1="17.09" x2="21.27" y2="17.09"/><line class="cls-1" x1="4.6" y1="24.47" x2="5.97" y2="24.47"/><line class="cls-1" x1="9.27" y1="24.47" x2="21.27" y2="24.47"/><line class="cls-1" x1="4.6" y1="31.85" x2="5.97" y2="31.85"/><line class="cls-1" x1="9.27" y1="31.85" x2="21.27" y2="31.85"/><polygon class="cls-1" points="37.45 4.06 27.19 18.78 22.8 16.28 33.06 1.56 37.45 4.06"/><polygon class="cls-1" points="36.98 3.79 37.9 2.46 34.45 .5 33.53 1.83 36.98 3.79"/><polygon class="cls-1" points="26.9 18.73 22.98 16.5 22.31 21.27 26.9 18.73"/><line class="cls-1" x1="21.5" y1="22.43" x2="22.51" y2="20.97"/></g></svg>