<?xml version="1.0" encoding="UTF-8"?><svg id="_レイヤー_2" xmlns="http://www.w3.org/2000/svg" viewBox="0 0 266.07 40.59"><defs><style>.cls-1{fill:#fff;}</style></defs><g id="_レイヤー_1-2"><path class="cls-1" d="m9.13,16.23c-2.05,1.65-4.7,3.13-7.94,4.44l-1.19-2.49c3.25-1.17,5.89-2.49,7.94-3.97H2.13V5.54h7v-1.12H.49v-2.33h8.64V.38h3.05v1.71h8.64v2.33h-8.64v1.12h7v8.66h-5.81c2.05,1.48,4.7,2.81,7.94,3.97l-1.19,2.49c-3.25-1.32-5.89-2.8-7.94-4.44v4.71h-3.05v-4.71Zm-4.2-7.29h4.2v-1.3h-4.2v1.3Zm4.2,3.25v-1.37h-4.2v1.37h4.2Zm7.25-3.25v-1.3h-4.2v1.3h4.2Zm-4.2,3.25h4.2v-1.37h-4.2v1.37Z"/><path class="cls-1" d="m23.74,5.16v-2.63h18.18v2.63c-.43,1.47-1.19,2.86-2.26,4.19-1.07,1.32-2.32,2.4-3.76,3.22l-1.75-2.31c2.36-1.42,3.88-3.12,4.56-5.09h-14.97Zm5.83,1.79h3.01c0,2.62-.2,4.74-.59,6.35-.4,1.62-1.03,2.93-1.9,3.94-.87,1.01-2.1,1.89-3.7,2.64l-1.55-2.4c1.84-.87,3.09-2.02,3.75-3.47.66-1.44.99-3.8.99-7.06Z"/><path class="cls-1" d="m45.04,7.25c1.96.33,4.43.81,7.41,1.44l-.56,2.65c-2.68-.57-5.14-1.04-7.38-1.41l.54-2.67Zm14.97-2.15l2.85.49c-.87,4.73-2.61,8.19-5.23,10.39-2.62,2.2-6.55,3.53-11.78,4l-.45-2.85c4.67-.4,8.08-1.49,10.23-3.25,2.15-1.76,3.61-4.69,4.38-8.77Zm-13.92-3.3c2.38.39,4.92.86,7.63,1.41l-.56,2.69c-2.71-.55-5.25-1.02-7.63-1.41l.56-2.69Zm14.92,1.84l-2.11,1.01c-.48-.99-1.05-2.07-1.71-3.25l2.11-1.05c.61,1.15,1.18,2.25,1.71,3.3Zm3.46-.27l-2.15,1.03c-.81-1.56-1.39-2.66-1.75-3.32l2.15-1.08c.69,1.26,1.27,2.38,1.75,3.37Z"/><path class="cls-1" d="m66.99,5.16v-2.63h18.18v2.63c-.43,1.47-1.19,2.86-2.26,4.19-1.07,1.32-2.32,2.4-3.76,3.22l-1.75-2.31c2.36-1.42,3.88-3.12,4.56-5.09h-14.97Zm5.83,1.79h3.01c0,2.62-.2,4.74-.59,6.35-.4,1.62-1.03,2.93-1.9,3.94-.87,1.01-2.1,1.89-3.7,2.64l-1.55-2.4c1.84-.87,3.09-2.02,3.75-3.47.66-1.44.99-3.8.99-7.06Z"/><path class="cls-1" d="m88.6,1.19h16.61v19.52h-2.99v-1.26h-10.64v1.26h-2.98V1.19Zm2.98,7.72h10.64V3.75h-10.64v5.16Zm0,2.47v5.61h10.64v-5.61h-10.64Z"/><path class="cls-1" d="m115.96,6.33h-7.14v-2.56h8.53V.38h3.01v3.39h8.53v2.56h-7.14c1.71,3.2,4.38,6.4,8.01,9.58l-1.57,2.58c-.99-.85-1.98-1.84-2.99-2.96v2.09h-4.85v3.55h-3.01v-3.55h-4.85v-2.09c-1,1.12-2,2.11-2.98,2.96l-1.57-2.58c3.64-3.19,6.31-6.38,8.01-9.58Zm1.39,2.6c-1.33,2.21-2.84,4.29-4.51,6.22h4.51v-6.22Zm7.52,6.22c-1.68-1.93-3.18-4-4.51-6.22v6.22h4.51Z"/><path class="cls-1" d="m131.24,3.66V1.19h8.44v2.47h-3.41c-.22,1.47-.59,2.92-1.1,4.38h4.51v10.3c.69-.82,1.2-1.74,1.54-2.75.34-1.01.57-2.48.71-4.41h-1.71v-2.47h1.82c.03-1.35.04-2.49.04-3.43v-1.62h-1.62V1.19h11.27v2.47h-1.84v5.05h2.07v2.47h-2.07v9.47h-2.92v-9.47h-2.2c-.17,2.54-.49,4.51-.96,5.9-.48,1.39-1.2,2.65-2.16,3.77l-2.04-2.15h-4.42v1.73h-2.6v-7.86c-.42.73-.9,1.42-1.44,2.07l-.65-3.5c1.56-1.98,2.58-4.47,3.07-7.47h-2.33Zm3.95,12.66h2.11v-5.81h-2.11v5.81Zm9.7-7.61h2.09V3.66h-2.04v1.62c0,.88-.02,2.03-.04,3.43Z"/><path class="cls-1" d="m170.48,18.11c.66,0,1.06-.18,1.2-.53.14-.35.27-1.5.39-3.45l2.69.31c-.06,1.08-.12,1.91-.17,2.49-.05.58-.16,1.14-.31,1.67-.16.53-.31.9-.47,1.1s-.44.38-.85.55c-.41.16-.82.26-1.23.28-.41.02-1.01.03-1.81.03-1.59,0-2.59-.15-3.01-.46-.42-.31-.63-1.03-.63-2.17v-3.82h-3.25c-.49,1.66-1.4,3.03-2.7,4.11-1.31,1.08-3.19,2-5.64,2.76l-1.39-2.33c2.04-.61,3.56-1.25,4.58-1.92,1.02-.67,1.73-1.54,2.13-2.61h-5.12v-2.47h5.61c.04-.54.07-1.11.07-1.73h2.98c0,.61-.02,1.19-.07,1.73h5.79v5.83c0,.3.05.48.16.53.1.05.46.08,1.06.08Zm-.72-9.79c.57-.03.91-.1,1.02-.22.11-.12.19-.52.24-1.19l2.83.31c-.04.58-.08,1.03-.11,1.32-.03.3-.11.59-.22.89-.12.29-.25.49-.38.61s-.37.22-.71.31c-.34.1-.68.15-1.03.17-.35.02-.86.03-1.54.04-.1,0-.27,0-.5.01-.23,0-.41.01-.53.01s-.29,0-.52-.01c-.22,0-.4-.01-.52-.01-1.33-.03-2.16-.15-2.49-.35s-.49-.68-.49-1.42v-4.08h-1.57c-.08,1.65-.76,2.97-2.06,3.97-1.3,1-3.41,1.76-6.33,2.27l-.72-2.36c2.36-.37,3.99-.86,4.87-1.46s1.32-1.41,1.32-2.42h-3.19v2.36h-2.81V2.31h8.12V.07h3.05v2.24h8.12v4.08h-2.81v-1.68h-3.1v2.87c0,.36.03.57.1.63s.3.1.68.11c.06,0,.16,0,.3.01.14,0,.25.01.33.01s.18,0,.33-.01c.14,0,.24-.01.3-.01Z"/><path class="cls-1" d="m187.07,10.39h8.03v10.48h-2.98v-.83h-8.98v.83h-2.99v-7.07c-1.17.46-2.19.84-3.07,1.12l-.96-2.62c3.04-.87,5.87-2.03,8.5-3.48h-8.39v-2.38h7.88v-2.02h-5.95v-2.33h5.95V.27h3.07v1.82h4.44v1.59c1-.97,1.83-1.92,2.49-2.83l2.22,1.59c-.99,1.32-2.25,2.65-3.79,4h4.47v2.38h-7.52c-.51.36-1.32.88-2.42,1.57Zm-3.93,3.77h8.98v-1.46h-8.98v1.46Zm0,2.18v1.48h8.98v-1.48h-8.98Zm7.72-11.92h-3.68v2.02h1.21c.91-.69,1.74-1.36,2.47-2.02Z"/><path class="cls-1" d="m215.84,10.95h3.84c0,1.62,0,2.94-.02,3.96-.02,1.02-.06,1.92-.12,2.68s-.13,1.33-.2,1.71c-.07.37-.19.67-.36.9-.17.22-.34.36-.49.39s-.39.06-.71.06c-.52,0-1.55-.04-3.07-.11l-.11-1.95c-.4.88-.94,1.69-1.59,2.42l-1.77-1.77c-.12.61-.29,1-.52,1.17-.22.16-.58.25-1.05.25-.42,0-1.39-.04-2.92-.11l-.11-1.95c-.4.88-.94,1.69-1.59,2.42l-1.71-1.77v1.71h-2.87V7.59h-1.62v-2.47h1.62V.61h2.87v4.51h1.89v2.24c2.23-.66,3.74-1.67,4.53-3.03h-3.86V1.91h4.65c.06-.46.09-1.02.09-1.68h2.92c0,.64-.03,1.2-.09,1.68h5.7c0,1.23-.01,2.22-.03,2.97-.02.76-.07,1.43-.16,2.03-.08.6-.18,1.04-.28,1.32s-.28.52-.53.7c-.25.18-.5.29-.75.33-.25.04-.61.06-1.08.06h-.45c0,.75,0,1.29-.02,1.64Zm-10.44,0c.01-.4.02-1.05.02-1.93h.63l-1.08-1.44h-1.66v11.36c.61-.72,1.07-1.48,1.37-2.29.3-.81.5-1.92.61-3.34h-1.26v-2.36h1.37Zm1.44,7.07c.7.06,1.23.09,1.57.09.13,0,.23-.03.29-.08.06-.05.12-.24.17-.57s.08-.8.09-1.41c0-.61.01-1.53.01-2.74h-1.23c-.15,1.95-.45,3.52-.9,4.71Zm6.44-7.07c.01-.36.02-.93.02-1.71-.19,0-.52-.01-.96-.04l-.18-2.4c1.57.08,2.57.11,2.98.11.28,0,.48-.05.59-.15s.19-.31.24-.65c.04-.34.07-.93.07-1.78h-3.17c-.79,2.1-2.45,3.7-4.98,4.83,0,.82,0,1.42-.02,1.8h3.68c0,4.08-.09,6.72-.27,7.92.58-.7,1.02-1.46,1.31-2.27s.49-1.91.59-3.3h-1.14v-2.36h1.23Zm1.53,7.07c.7.06,1.24.09,1.62.09.13,0,.24-.03.3-.09.07-.06.12-.25.17-.58s.07-.8.09-1.4c.01-.61.02-1.51.02-2.73h-1.3c-.15,1.95-.45,3.52-.9,4.71Z"/><path class="cls-1" d="m221.88,6.87v-2.42h7v2.42h-7Zm.4-3.37V1.23h6.26v2.27h-6.26Zm2.45,16.74v.81h-2.45v-6.84h6.33v6.04h-3.88Zm-2.24-10.19v-2.2h6.01v2.2h-6.01Zm0,3.16v-2.18h6.01v2.18h-6.01Zm2.24,4.87h1.68v-1.73h-1.68v1.73Zm18.09-5.5v2.27h-1.46l.92.47c-.25.42-.56.85-.92,1.28l1.68.65c-.18,1.35-.47,2.29-.88,2.84-.4.55-.93.82-1.59.82-.93,0-1.75-.53-2.47-1.59-.85.49-1.89.93-3.12,1.32l-.83-2.13c1.08-.3,2.07-.7,2.99-1.19-.24-.67-.45-1.5-.63-2.47h-2.72v.63c.9-.12,1.62-.24,2.18-.36l.29,2.02c-.55.12-1.38.26-2.47.43v1.32c0,.88-.12,1.44-.36,1.67-.24.23-.82.35-1.73.35-.36,0-1.06-.04-2.11-.11l-.13-2.15c.67.08,1.16.11,1.46.11.15,0,.24-.03.26-.08s.03-.23.03-.53v-.29c-.06,0-.72.04-1.98.13l-.16-2.09c.94-.06,1.65-.11,2.13-.16v-.9h-2.09v-2.27h2.09v-.56c-.34.04-.89.1-1.64.16l-.25-1.89c1.89-.18,3.58-.44,5.09-.79h-5.3v-2.15h5.34v-.76h-4.26v-1.88h4.26v-.72h-4.94V1.73h2.45c-.09-.22-.25-.61-.49-1.17l2.65-.38c.15.31.36.83.63,1.55h2.62c.19-.48.37-.99.54-1.53l2.63.27c-.03.09-.09.28-.18.57-.09.29-.17.52-.22.68h2.29v2.27h-4.89v.72h4.22v1.88h-4.22v.76h5.27v2.15h-2.29c.82.82,1.5,1.57,2.04,2.24l-.99.83h1.23Zm-6.78-2.6h2.54c.03.97.08,1.84.13,2.6h1.71c-.52-.64-1.08-1.27-1.68-1.88l1.48-1.19h-4.89l.45,1.66c-.54.18-1.2.34-1.98.47v.94h2.42c-.09-.97-.15-1.84-.18-2.6Zm3.17,5.86c.31-.3.61-.63.88-.99h-1.08c.07.4.14.73.2.99Zm1.97.99c-.27.31-.64.69-1.12,1.12.24.33.44.49.61.49s.34-.54.52-1.62Z"/><path class="cls-1" d="m261.65,7.52v1.62h-12.7v-1.62c-.76.48-1.85,1.08-3.25,1.82l-1.17-2.45c3.37-1.78,6.33-3.88,8.89-6.28h3.77c2.56,2.41,5.52,4.5,8.89,6.28l-1.17,2.45c-1.41-.73-2.49-1.34-3.25-1.82Zm.18,6.19c1.08,2.01,2.18,4.18,3.32,6.53l-2.63.96c-.39-.84-.71-1.51-.96-2.02-5.39.67-10.44,1.08-15.17,1.23l-.13-2.47c.24-.01.57-.03,1-.04s.82-.03,1.17-.04.68-.03,1-.04c.64-1.15,1.35-2.6,2.11-4.35h-5.88v-2.47h19.3v2.47h-10.23c-.61,1.44-1.26,2.81-1.93,4.13,2.72-.19,5.27-.43,7.63-.7-.28-.57-.67-1.3-1.14-2.2l2.56-.99Zm-1.37-6.98c-1.87-1.26-3.59-2.66-5.16-4.22-1.57,1.56-3.29,2.96-5.16,4.22h10.32Z"/><path class="cls-1" d="m1.42,28.07h5.5v1.03H2.63v2.99h3.61v1.03h-3.61v3.47h4.43v1.03H1.42v-9.54Z"/><path class="cls-1" d="m8.65,35.78c0-1.53,1.34-2.3,4.34-2.64,0-.91-.3-1.78-1.45-1.78-.82,0-1.56.38-2.12.75l-.47-.82c.65-.42,1.65-.92,2.78-.92,1.72,0,2.44,1.16,2.44,2.9v4.34h-.97l-.1-.85h-.04c-.68.56-1.47,1.01-2.34,1.01-1.18,0-2.07-.73-2.07-2Zm4.34.12v-1.98c-2.38.29-3.18.87-3.18,1.78,0,.81.55,1.13,1.25,1.13s1.25-.32,1.94-.94Z"/><path class="cls-1" d="m15.76,36.81l.58-.78c.61.49,1.25.83,2.09.83.94,0,1.39-.49,1.39-1.1,0-.73-.83-1.04-1.61-1.34-.99-.36-2.07-.85-2.07-2.04,0-1.12.91-2,2.44-2,.87,0,1.64.36,2.18.79l-.57.77c-.48-.36-.97-.62-1.6-.62-.9,0-1.31.47-1.31,1.01,0,.68.73.92,1.52,1.22,1.03.39,2.16.81,2.16,2.14,0,1.14-.91,2.09-2.57,2.09-1,0-1.96-.42-2.64-.98Z"/><path class="cls-1" d="m22.97,35.43v-3.91h-1.05v-.9l1.1-.07.14-1.99h.99v1.99h1.91v.96h-1.91v3.94c0,.87.27,1.36,1.09,1.36.25,0,.57-.09.81-.18l.23.88c-.4.13-.87.26-1.3.26-1.51,0-2.01-.95-2.01-2.35Z"/><path class="cls-1" d="m32.92,28.07h1.34l3.24,9.54h-1.27l-.91-2.91h-3.48l-.92,2.91h-1.22l3.24-9.54Zm-.79,5.67h2.88l-.45-1.46c-.35-1.08-.65-2.12-.96-3.22h-.05c-.3,1.12-.61,2.14-.95,3.22l-.47,1.46Z"/><path class="cls-1" d="m38.07,36.81l.58-.78c.61.49,1.25.83,2.09.83.94,0,1.39-.49,1.39-1.1,0-.73-.83-1.04-1.61-1.34-.99-.36-2.07-.85-2.07-2.04,0-1.12.91-2,2.44-2,.87,0,1.64.36,2.18.79l-.57.77c-.48-.36-.97-.62-1.6-.62-.9,0-1.31.47-1.31,1.01,0,.68.73.92,1.52,1.22,1.03.39,2.16.81,2.16,2.14,0,1.14-.91,2.09-2.57,2.09-1,0-1.96-.42-2.64-.98Z"/><path class="cls-1" d="m44.88,28.31c0-.45.32-.77.79-.77s.79.31.79.77c0,.48-.32.79-.79.79s-.79-.31-.79-.79Zm.19,2.25h1.18v7.06h-1.18v-7.06Z"/><path class="cls-1" d="m48.33,35.78c0-1.53,1.34-2.3,4.34-2.64,0-.91-.3-1.78-1.45-1.78-.82,0-1.56.38-2.12.75l-.47-.82c.65-.42,1.65-.92,2.78-.92,1.72,0,2.44,1.16,2.44,2.9v4.34h-.97l-.1-.85h-.04c-.68.56-1.47,1.01-2.34,1.01-1.18,0-2.07-.73-2.07-2Zm4.34.12v-1.98c-2.38.29-3.18.87-3.18,1.78,0,.81.55,1.13,1.25,1.13s1.25-.32,1.94-.94Z"/><path class="cls-1" d="m56.24,30.55h.98l.1,1.01h.04c.68-.66,1.4-1.2,2.37-1.2,1.48,0,2.16.96,2.16,2.77v4.47h-1.18v-4.31c0-1.33-.4-1.88-1.34-1.88-.73,0-1.22.36-1.94,1.08v5.12h-1.18v-7.06Z"/><path class="cls-1" d="m66.91,32.85c0-3.08,1.81-4.95,4.22-4.95,1.16,0,2.07.57,2.61,1.18l-.65.78c-.49-.53-1.13-.91-1.95-.91-1.81,0-3,1.48-3,3.86s1.14,3.91,2.96,3.91c.91,0,1.6-.4,2.21-1.07l.66.75c-.75.87-1.69,1.36-2.92,1.36-2.37,0-4.15-1.83-4.15-4.93Z"/><path class="cls-1" d="m75.24,34.09c0-2.35,1.55-3.72,3.27-3.72s3.28,1.36,3.28,3.72-1.55,3.69-3.28,3.69-3.27-1.35-3.27-3.69Zm5.33,0c0-1.62-.83-2.73-2.05-2.73s-2.04,1.1-2.04,2.73.82,2.7,2.04,2.7,2.05-1.08,2.05-2.7Z"/><path class="cls-1" d="m83.78,30.55h.98l.1,1.01h.04c.68-.66,1.4-1.2,2.37-1.2,1.48,0,2.16.96,2.16,2.77v4.47h-1.18v-4.31c0-1.33-.4-1.88-1.34-1.88-.73,0-1.22.36-1.94,1.08v5.12h-1.18v-7.06Z"/><path class="cls-1" d="m91.06,36.81l.58-.78c.61.49,1.25.83,2.09.83.94,0,1.39-.49,1.39-1.1,0-.73-.83-1.04-1.61-1.34-.99-.36-2.07-.85-2.07-2.04,0-1.12.91-2,2.44-2,.87,0,1.64.36,2.18.79l-.57.77c-.48-.36-.97-.62-1.6-.62-.9,0-1.31.47-1.31,1.01,0,.68.73.92,1.52,1.22,1.03.39,2.16.81,2.16,2.14,0,1.14-.91,2.09-2.57,2.09-1,0-1.96-.42-2.64-.98Z"/><path class="cls-1" d="m97.53,34.09c0-2.35,1.55-3.72,3.28-3.72s3.28,1.36,3.28,3.72-1.55,3.69-3.28,3.69-3.28-1.35-3.28-3.69Zm5.33,0c0-1.62-.83-2.73-2.05-2.73s-2.04,1.1-2.04,2.73.82,2.7,2.04,2.7,2.05-1.08,2.05-2.7Z"/><path class="cls-1" d="m106.07,30.55h.98l.1,1.29h.04c.49-.9,1.21-1.47,2-1.47.31,0,.53.04.75.16l-.22,1.04c-.23-.09-.4-.12-.69-.12-.58,0-1.31.42-1.78,1.62v4.54h-1.18v-7.06Z"/><path class="cls-1" d="m111.45,35.43v-3.91h-1.05v-.9l1.11-.07.14-1.99h.99v1.99h1.91v.96h-1.91v3.94c0,.87.27,1.36,1.09,1.36.25,0,.57-.09.81-.18l.23.88c-.4.13-.87.26-1.3.26-1.51,0-2.01-.95-2.01-2.35Z"/><path class="cls-1" d="m116.08,28.31c0-.45.32-.77.79-.77s.79.31.79.77c0,.48-.32.79-.79.79s-.79-.31-.79-.79Zm.19,2.25h1.18v7.06h-1.18v-7.06Z"/><path class="cls-1" d="m119.89,35.03v-4.47h1.18v4.33c0,1.31.39,1.87,1.33,1.87.73,0,1.23-.35,1.91-1.2v-5h1.18v7.06h-.99l-.09-1.1h-.04c-.66.77-1.36,1.27-2.34,1.27-1.48,0-2.15-.96-2.15-2.76Z"/><path class="cls-1" d="m128,30.55h.97l.1,1.03h.04c.61-.68,1.35-1.21,2.2-1.21,1.08,0,1.66.52,1.95,1.35.73-.79,1.47-1.35,2.33-1.35,1.45,0,2.14.96,2.14,2.77v4.47h-1.18v-4.31c0-1.33-.42-1.88-1.31-1.88-.55,0-1.12.35-1.78,1.08v5.12h-1.18v-4.31c0-1.33-.42-1.88-1.31-1.88-.53,0-1.13.35-1.78,1.08v5.12h-1.18v-7.06Z"/><path class="cls-1" d="m142.67,34.09c0-2.35,1.55-3.72,3.28-3.72s3.28,1.36,3.28,3.72-1.55,3.69-3.28,3.69-3.28-1.35-3.28-3.69Zm5.33,0c0-1.62-.83-2.73-2.05-2.73s-2.04,1.1-2.04,2.73.82,2.7,2.04,2.7,2.05-1.08,2.05-2.7Z"/><path class="cls-1" d="m151.41,31.52h-.96v-.9l.96-.07v-1.13c0-1.43.65-2.33,2.05-2.33.43,0,.86.09,1.18.23l-.26.9c-.26-.12-.55-.18-.79-.18-.68,0-1,.48-1,1.39v1.12h1.49v.96h-1.49v6.1h-1.18v-6.1Z"/><path class="cls-1" d="m157.87,36.27l.86-.61c.43.75.96,1.07,1.65,1.07,1.03,0,1.53-.58,1.53-2.03v-6.63h1.2v6.75c0,1.64-.75,2.96-2.61,2.96-1.21,0-2.07-.52-2.63-1.51Z"/><path class="cls-1" d="m165.26,35.78c0-1.53,1.34-2.3,4.34-2.64,0-.91-.3-1.78-1.45-1.78-.82,0-1.56.38-2.12.75l-.47-.82c.65-.42,1.65-.92,2.78-.92,1.72,0,2.44,1.16,2.44,2.9v4.34h-.97l-.1-.85h-.04c-.68.56-1.47,1.01-2.34,1.01-1.18,0-2.07-.73-2.07-2Zm4.34.12v-1.98c-2.38.29-3.18.87-3.18,1.78,0,.81.55,1.13,1.25,1.13s1.25-.32,1.94-.94Z"/><path class="cls-1" d="m173.17,30.55h.97l.1.81h.04c.64-.52,1.43-.99,2.25-.99,1.82,0,2.81,1.43,2.81,3.6,0,2.42-1.44,3.81-3.07,3.81-.64,0-1.31-.3-1.95-.82l.03,1.23v2.39h-1.18v-10.03Zm4.94,3.43c0-1.56-.52-2.61-1.86-2.61-.6,0-1.21.34-1.9.97v3.7c.64.55,1.26.74,1.73.74,1.17,0,2.03-1.05,2.03-2.81Z"/><path class="cls-1" d="m180.91,35.78c0-1.53,1.34-2.3,4.34-2.64,0-.91-.3-1.78-1.45-1.78-.82,0-1.56.38-2.12.75l-.47-.82c.65-.42,1.65-.92,2.78-.92,1.72,0,2.44,1.16,2.44,2.9v4.34h-.97l-.1-.85h-.04c-.68.56-1.47,1.01-2.34,1.01-1.18,0-2.07-.73-2.07-2Zm4.34.12v-1.98c-2.38.29-3.18.87-3.18,1.78,0,.81.55,1.13,1.25,1.13s1.25-.32,1.94-.94Z"/><path class="cls-1" d="m188.82,30.55h.97l.1,1.01h.04c.68-.66,1.4-1.2,2.37-1.2,1.48,0,2.16.96,2.16,2.77v4.47h-1.18v-4.31c0-1.33-.4-1.88-1.34-1.88-.73,0-1.22.36-1.94,1.08v5.12h-1.18v-7.06Z"/><path class="cls-1" d="m196.35,34.09c0-2.29,1.55-3.72,3.18-3.72,1.79,0,2.81,1.3,2.81,3.31,0,.26-.03.51-.05.68h-4.76c.08,1.51,1,2.47,2.34,2.47.69,0,1.25-.21,1.77-.56l.43.78c-.62.4-1.38.73-2.34.73-1.87,0-3.38-1.36-3.38-3.69Zm4.95-.58c0-1.42-.65-2.18-1.76-2.18-1,0-1.88.81-2.03,2.18h3.78Z"/><path class="cls-1" d="m203.42,36.81l.58-.78c.61.49,1.25.83,2.09.83.94,0,1.39-.49,1.39-1.1,0-.73-.83-1.04-1.61-1.34-.99-.36-2.07-.85-2.07-2.04,0-1.12.91-2,2.44-2,.87,0,1.64.36,2.18.79l-.57.77c-.48-.36-.97-.62-1.6-.62-.9,0-1.31.47-1.31,1.01,0,.68.73.92,1.52,1.22,1.03.39,2.16.81,2.16,2.14,0,1.14-.91,2.09-2.57,2.09-1,0-1.96-.42-2.64-.98Z"/><path class="cls-1" d="m209.9,34.09c0-2.29,1.55-3.72,3.18-3.72,1.79,0,2.81,1.3,2.81,3.31,0,.26-.03.51-.05.68h-4.76c.08,1.51,1,2.47,2.34,2.47.69,0,1.25-.21,1.77-.56l.43.78c-.62.4-1.38.73-2.34.73-1.87,0-3.38-1.36-3.38-3.69Zm4.95-.58c0-1.42-.65-2.18-1.75-2.18-1,0-1.88.81-2.03,2.18h3.78Z"/><path class="cls-1" d="m220.22,36.36l.73-.82c.68.72,1.64,1.18,2.63,1.18,1.25,0,2-.62,2-1.56s-.69-1.29-1.59-1.69l-1.38-.6c-.88-.38-1.94-1.05-1.94-2.44,0-1.47,1.27-2.53,3-2.53,1.13,0,2.13.48,2.81,1.18l-.64.77c-.58-.55-1.29-.9-2.17-.9-1.08,0-1.78.55-1.78,1.4,0,.92.83,1.27,1.57,1.59l1.36.58c1.1.48,1.96,1.13,1.96,2.55,0,1.51-1.25,2.7-3.24,2.7-1.35,0-2.51-.55-3.34-1.42Z"/><path class="cls-1" d="m228.9,35.43v-3.91h-1.05v-.9l1.1-.07.14-1.99h.99v1.99h1.91v.96h-1.91v3.94c0,.87.27,1.36,1.09,1.36.25,0,.57-.09.81-.18l.23.88c-.4.13-.87.26-1.3.26-1.51,0-2.01-.95-2.01-2.35Z"/><path class="cls-1" d="m233.63,35.03v-4.47h1.18v4.33c0,1.31.39,1.87,1.32,1.87.73,0,1.23-.35,1.91-1.2v-5h1.18v7.06h-.99l-.09-1.1h-.04c-.66.77-1.36,1.27-2.34,1.27-1.48,0-2.14-.96-2.14-2.76Z"/><path class="cls-1" d="m241.24,34.09c0-2.29,1.44-3.72,3.05-3.72.83,0,1.36.31,1.99.83l-.05-1.22v-2.72h1.17v10.35h-.96l-.1-.83h-.04c-.56.55-1.3,1-2.15,1-1.77,0-2.91-1.34-2.91-3.69Zm4.99,1.73v-3.7c-.61-.53-1.14-.74-1.73-.74-1.14,0-2.04,1.09-2.04,2.7,0,1.7.7,2.72,1.95,2.72.65,0,1.22-.33,1.82-.98Z"/><path class="cls-1" d="m249.74,28.31c0-.45.32-.77.79-.77s.79.31.79.77c0,.48-.32.79-.79.79s-.79-.31-.79-.79Zm.19,2.25h1.18v7.06h-1.18v-7.06Z"/><path class="cls-1" d="m253.1,34.09c0-2.29,1.55-3.72,3.18-3.72,1.79,0,2.81,1.3,2.81,3.31,0,.26-.03.51-.05.68h-4.76c.08,1.51,1,2.47,2.34,2.47.69,0,1.25-.21,1.77-.56l.43.78c-.62.4-1.38.73-2.34.73-1.87,0-3.38-1.36-3.38-3.69Zm4.95-.58c0-1.42-.65-2.18-1.76-2.18-1,0-1.88.81-2.03,2.18h3.78Z"/><path class="cls-1" d="m260.17,36.81l.58-.78c.61.49,1.25.83,2.09.83.94,0,1.39-.49,1.39-1.1,0-.73-.83-1.04-1.61-1.34-.99-.36-2.07-.85-2.07-2.04,0-1.12.91-2,2.44-2,.87,0,1.64.36,2.18.79l-.57.77c-.48-.36-.97-.62-1.6-.62-.9,0-1.31.47-1.31,1.01,0,.68.73.92,1.52,1.22,1.03.39,2.16.81,2.16,2.14,0,1.14-.91,2.09-2.57,2.09-1,0-1.96-.42-2.64-.98Z"/></g></svg>